<svg xmlns="http://www.w3.org/2000/svg" viewBox="0 0 1200 600" width="1200" height="600">
	<defs>
		<style>
			@import url('https://fonts.googleapis.com/css2?family=Inter:wght@400;800&amp;family=JetBrains+Mono:wght@400;700&amp;display=swap');
			.bg { fill: #030305; }
			.border { stroke: rgba(255,255,255,0.08); stroke-width: 1; }
			.accent { fill: #10b981; }
			.text-main { fill: #f8fafc; font-family: 'Inter', sans-serif; }
			.text-mono { fill: #a1a1aa; font-family: 'JetBrains Mono', monospace; font-size: 12px; }
			.pulse { animation: pulseAnim 2s infinite; }
			@keyframes pulseAnim {
				0% { r: 5; opacity: 1; }
				50% { r: 15; opacity: 0; }
				100% { r: 5; opacity: 0; }
			}
			.blink { animation: blinkAnim 1s step-end infinite; }
			@keyframes blinkAnim { 50% { opacity: 0; } }
		</style>
		<radialGradient id="hologram" cx="50%" cy="50%" r="50%">
			<stop offset="0%" stop-color="#0a0a14" />
			<stop offset="100%" stop-color="#030305" />
		</radialGradient>
	</defs>
	<rect width="1200" height="600" fill="url(#hologram)" /><rect x="750" y="0" width="450" height="600" fill="rgba(15, 20, 30, 0.6)" class="border" /><line x1="750" y1="0" x2="750" y2="600" class="border" /><circle cx="364.72" cy="300.10" r="2.44" fill="#10b981" opacity="0.96" /><circle cx="374.08" cy="386.81" r="1.57" fill="#dc2626" opacity="0.64" /><circle cx="497.69" cy="288.20" r="1.15" fill="#10b981" opacity="0.48" /><circle cx="361.03" cy="360.55" r="1.86" fill="#dc2626" opacity="0.75" /><circle cx="366.08" cy="363.19" r="1.65" fill="#dc2626" opacity="0.72" /><circle cx="373.50" cy="386.13" r="1.52" fill="#dc2626" opacity="0.64" /><circle cx="374.39" cy="354.54" r="1.95" fill="#dc2626" opacity="0.78" /><circle cx="387.40" cy="195.76" r="1.34" fill="#3b82f6" opacity="0.56" /><circle cx="262.47" cy="227.24" r="0.99" fill="#3b82f6" opacity="0.43" /><circle cx="313.89" cy="299.29" r="1.61" fill="#10b981" opacity="0.72" /><circle cx="345.35" cy="315.03" r="2.26" fill="#10b981" opacity="0.87" /><circle cx="395.74" cy="335.17" r="2.03" fill="#10b981" opacity="0.83" /><circle cx="336.22" cy="375.38" r="1.35" fill="#dc2626" opacity="0.61" /><circle cx="425.05" cy="237.96" r="1.52" fill="#3b82f6" opacity="0.66" /><circle cx="345.17" cy="188.07" r="1.26" fill="#3b82f6" opacity="0.52" /><circle cx="254.04" cy="348.17" r="0.91" fill="#dc2626" opacity="0.41" /><circle cx="383.54" cy="319.32" r="2.24" fill="#10b981" opacity="0.91" /><circle cx="374.12" cy="382.64" r="1.66" fill="#dc2626" opacity="0.67" /><circle cx="389.71" cy="251.19" r="1.58" fill="#3b82f6" opacity="0.76" /><circle cx="361.57" cy="312.52" r="2.45" fill="#10b981" opacity="0.93" /><circle cx="353.33" cy="396.63" r="1.31" fill="#dc2626" opacity="0.57" /><circle cx="392.90" cy="324.66" r="2.16" fill="#10b981" opacity="0.88" /><circle cx="307.70" cy="169.90" r="0.99" fill="#3b82f6" opacity="0.40" /><circle cx="391.81" cy="305.60" r="2.41" fill="#10b981" opacity="0.93" /><circle cx="307.45" cy="371.14" r="1.29" fill="#dc2626" opacity="0.57" /><circle cx="381.44" cy="314.48" r="2.46" fill="#10b981" opacity="0.94" /><circle cx="374.27" cy="155.18" r="0.96" fill="#3b82f6" opacity="0.40" /><circle cx="368.84" cy="302.38" r="2.42" fill="#10b981" opacity="0.97" /><circle cx="374.90" cy="301.21" r="2.54" fill="#10b981" opacity="1.00" /><circle cx="327.36" cy="174.09" r="0.94" fill="#3b82f6" opacity="0.41" /><circle cx="393.05" cy="359.71" r="1.92" fill="#dc2626" opacity="0.75" /><circle cx="382.25" cy="342.12" r="1.67" fill="#dc2626" opacity="0.80" /><circle cx="340.32" cy="348.47" r="1.99" fill="#10b981" opacity="0.77" /><circle cx="281.24" cy="298.59" r="1.29" fill="#10b981" opacity="0.58" /><circle cx="374.17" cy="322.92" r="2.22" fill="#10b981" opacity="0.91" /><circle cx="475.87" cy="213.45" r="0.85" fill="#3b82f6" opacity="0.39" /><circle cx="353.87" cy="315.56" r="2.21" fill="#10b981" opacity="0.89" /><circle cx="421.38" cy="314.47" r="1.69" fill="#10b981" opacity="0.78" /><circle cx="362.94" cy="395.39" r="1.57" fill="#dc2626" opacity="0.62" /><circle cx="291.47" cy="256.98" r="1.33" fill="#10b981" opacity="0.59" /><circle cx="390.52" cy="315.36" r="2.25" fill="#10b981" opacity="0.91" /><circle cx="365.20" cy="336.44" r="1.63" fill="#10b981" opacity="0.81" /><circle cx="406.76" cy="169.26" r="1.12" fill="#3b82f6" opacity="0.46" /><circle cx="261.28" cy="327.12" r="1.11" fill="#10b981" opacity="0.49" /><circle cx="337.07" cy="308.41" r="2.12" fill="#10b981" opacity="0.85" /><circle cx="394.71" cy="347.12" r="2.06" fill="#10b981" opacity="0.80" /><circle cx="371.75" cy="300.64" r="2.52" fill="#10b981" opacity="0.99" /><circle cx="367.93" cy="203.99" r="1.36" fill="#3b82f6" opacity="0.59" /><circle cx="393.99" cy="296.80" r="2.01" fill="#10b981" opacity="0.91" /><circle cx="377.86" cy="299.34" r="2.49" fill="#10b981" opacity="0.99" /><circle cx="401.55" cy="363.20" r="1.38" fill="#dc2626" opacity="0.67" /><circle cx="375.10" cy="357.51" r="1.90" fill="#dc2626" opacity="0.77" /><circle cx="257.39" cy="193.59" r="0.75" fill="#3b82f6" opacity="0.32" /><circle cx="363.84" cy="318.11" r="2.44" fill="#10b981" opacity="0.92" /><circle cx="273.15" cy="258.92" r="1.19" fill="#10b981" opacity="0.52" /><circle cx="391.88" cy="368.98" r="1.82" fill="#dc2626" opacity="0.72" /><circle cx="368.92" cy="314.15" r="2.28" fill="#10b981" opacity="0.94" /><circle cx="372.86" cy="393.57" r="1.56" fill="#dc2626" opacity="0.62" /><circle cx="427.62" cy="221.50" r="1.32" fill="#3b82f6" opacity="0.58" /><circle cx="272.37" cy="210.37" r="0.83" fill="#3b82f6" opacity="0.38" /><circle cx="336.71" cy="402.72" r="1.20" fill="#dc2626" opacity="0.52" /><circle cx="374.41" cy="330.79" r="2.15" fill="#10b981" opacity="0.87" /><circle cx="364.10" cy="200.58" r="1.32" fill="#3b82f6" opacity="0.57" /><circle cx="381.14" cy="299.23" r="2.45" fill="#10b981" opacity="0.98" /><circle cx="370.05" cy="303.97" r="2.41" fill="#10b981" opacity="0.97" /><circle cx="393.02" cy="312.78" r="2.25" fill="#10b981" opacity="0.91" /><circle cx="334.50" cy="319.52" r="2.10" fill="#10b981" opacity="0.82" /><circle cx="384.72" cy="395.26" r="1.27" fill="#dc2626" opacity="0.57" /><circle cx="393.62" cy="300.92" r="2.33" fill="#10b981" opacity="0.93" /><circle cx="480.11" cy="395.54" r="0.79" fill="#dc2626" opacity="0.36" /><circle cx="376.53" cy="302.25" r="2.45" fill="#10b981" opacity="0.99" /><circle cx="337.50" cy="360.34" r="1.66" fill="#dc2626" opacity="0.70" /><circle cx="381.20" cy="406.91" r="1.37" fill="#dc2626" opacity="0.56" /><circle cx="374.09" cy="350.17" r="1.98" fill="#dc2626" opacity="0.80" /><circle cx="380.65" cy="330.61" r="2.12" fill="#10b981" opacity="0.87" /><circle cx="379.43" cy="302.10" r="2.51" fill="#10b981" opacity="0.98" /><circle cx="342.98" cy="358.55" r="1.68" fill="#dc2626" opacity="0.72" /><circle cx="297.46" cy="291.42" r="1.51" fill="#10b981" opacity="0.66" /><circle cx="324.64" cy="368.68" r="1.70" fill="#dc2626" opacity="0.67" /><circle cx="371.74" cy="409.29" r="1.40" fill="#dc2626" opacity="0.56" /><circle cx="388.60" cy="182.23" r="1.26" fill="#3b82f6" opacity="0.52" /><circle cx="360.71" cy="299.50" r="2.38" fill="#10b981" opacity="0.94" /><circle cx="412.17" cy="196.24" r="1.16" fill="#3b82f6" opacity="0.51" /><circle cx="396.09" cy="334.04" r="2.20" fill="#10b981" opacity="0.85" /><circle cx="312.10" cy="258.02" r="1.51" fill="#10b981" opacity="0.67" /><circle cx="323.46" cy="193.39" r="1.11" fill="#3b82f6" opacity="0.48" /><circle cx="397.24" cy="296.15" r="1.86" fill="#10b981" opacity="0.89" /><circle cx="393.08" cy="350.44" r="1.99" fill="#10b981" opacity="0.79" /><circle cx="289.77" cy="380.26" r="1.06" fill="#dc2626" opacity="0.48" /><circle cx="386.58" cy="185.86" r="1.15" fill="#3b82f6" opacity="0.50" /><circle cx="391.21" cy="206.75" r="1.49" fill="#3b82f6" opacity="0.61" /><circle cx="391.80" cy="300.71" r="2.36" fill="#10b981" opacity="0.93" /><circle cx="347.43" cy="369.46" r="1.61" fill="#dc2626" opacity="0.68" /><circle cx="378.81" cy="376.31" r="1.59" fill="#dc2626" opacity="0.68" /><circle cx="351.31" cy="333.85" r="2.25" fill="#10b981" opacity="0.84" /><circle cx="431.56" cy="326.35" r="1.94" fill="#10b981" opacity="0.76" /><circle cx="396.46" cy="353.99" r="1.95" fill="#dc2626" opacity="0.77" /><circle cx="410.38" cy="168.63" r="0.92" fill="#3b82f6" opacity="0.40" /><circle cx="490.41" cy="310.35" r="1.19" fill="#10b981" opacity="0.51" /><circle cx="392.53" cy="378.62" r="1.67" fill="#dc2626" opacity="0.67" /><circle cx="374.23" cy="331.53" r="2.37" fill="#10b981" opacity="0.88" /><circle cx="509.17" cy="218.15" r="0.62" fill="#3b82f6" opacity="0.28" /><circle cx="367.44" cy="370.23" r="1.78" fill="#dc2626" opacity="0.72" /><circle cx="376.94" cy="374.23" r="1.73" fill="#dc2626" opacity="0.70" /><circle cx="224.08" cy="343.82" r="0.63" fill="#10b981" opacity="0.28" /><circle cx="283.33" cy="246.04" r="1.27" fill="#3b82f6" opacity="0.54" /><circle cx="373.89" cy="399.75" r="1.51" fill="#dc2626" opacity="0.60" /><circle cx="355.72" cy="315.96" r="2.21" fill="#10b981" opacity="0.90" /><circle cx="371.59" cy="381.41" r="1.67" fill="#dc2626" opacity="0.67" /><circle cx="364.18" cy="342.14" r="2.16" fill="#10b981" opacity="0.83" /><circle cx="375.39" cy="343.62" r="2.03" fill="#10b981" opacity="0.82" /><circle cx="400.52" cy="353.36" r="2.03" fill="#dc2626" opacity="0.77" /><circle cx="365.94" cy="181.49" r="1.15" fill="#3b82f6" opacity="0.49" /><circle cx="468.60" cy="276.38" r="1.07" fill="#10b981" opacity="0.53" /><circle cx="375.47" cy="369.31" r="1.81" fill="#dc2626" opacity="0.72" /><circle cx="386.40" cy="307.75" r="2.34" fill="#10b981" opacity="0.94" /><circle cx="387.70" cy="344.57" r="2.10" fill="#10b981" opacity="0.82" /><circle cx="327.22" cy="348.20" r="1.47" fill="#dc2626" opacity="0.68" /><circle cx="341.59" cy="379.68" r="1.42" fill="#dc2626" opacity="0.62" /><circle cx="447.01" cy="390.63" r="1.04" fill="#dc2626" opacity="0.47" /><circle cx="373.98" cy="304.44" r="2.54" fill="#10b981" opacity="0.98" /><circle cx="373.38" cy="375.05" r="1.58" fill="#dc2626" opacity="0.68" /><circle cx="409.95" cy="330.77" r="2.17" fill="#10b981" opacity="0.82" /><circle cx="359.23" cy="207.18" r="1.37" fill="#3b82f6" opacity="0.59" /><circle cx="332.17" cy="196.54" r="1.08" fill="#3b82f6" opacity="0.49" /><circle cx="344.41" cy="352.12" r="1.98" fill="#dc2626" opacity="0.77" /><circle cx="404.06" cy="374.32" r="1.75" fill="#dc2626" opacity="0.69" /><circle cx="263.98" cy="212.38" r="0.82" fill="#3b82f6" opacity="0.37" /><circle cx="346.63" cy="364.06" r="1.42" fill="#dc2626" opacity="0.67" /><circle cx="384.18" cy="304.01" r="2.38" fill="#10b981" opacity="0.96" /><circle cx="496.83" cy="241.78" r="0.93" fill="#3b82f6" opacity="0.41" /><circle cx="238.55" cy="291.89" r="0.84" fill="#10b981" opacity="0.38" /><circle cx="357.36" cy="316.49" r="2.24" fill="#10b981" opacity="0.90" /><circle cx="535.87" cy="317.85" r="0.58" fill="#10b981" opacity="0.26" /><circle cx="433.54" cy="346.79" r="1.80" fill="#10b981" opacity="0.71" /><circle cx="231.20" cy="391.85" r="0.72" fill="#dc2626" opacity="0.30" /><circle cx="372.08" cy="330.31" r="2.16" fill="#10b981" opacity="0.88" /><circle cx="392.94" cy="321.20" r="1.87" fill="#10b981" opacity="0.87" /><circle cx="361.58" cy="308.79" r="2.30" fill="#10b981" opacity="0.93" /><circle cx="336.11" cy="346.74" r="2.00" fill="#10b981" opacity="0.77" /><circle cx="293.31" cy="353.36" r="1.13" fill="#dc2626" opacity="0.54" /><circle cx="402.04" cy="176.54" r="1.07" fill="#3b82f6" opacity="0.46" /><circle cx="355.14" cy="337.73" r="2.02" fill="#10b981" opacity="0.83" /><circle cx="363.52" cy="375.04" r="1.80" fill="#dc2626" opacity="0.70" /><circle cx="359.49" cy="355.07" r="1.96" fill="#dc2626" opacity="0.77" /><circle cx="375.72" cy="187.87" r="1.27" fill="#3b82f6" opacity="0.53" /><circle cx="359.07" cy="339.01" r="2.26" fill="#10b981" opacity="0.84" /><circle cx="356.31" cy="331.14" r="2.09" fill="#10b981" opacity="0.85" /><circle cx="315.12" cy="346.38" r="1.57" fill="#10b981" opacity="0.67" /><circle cx="413.51" cy="324.05" r="2.11" fill="#10b981" opacity="0.82" /><circle cx="392.34" cy="375.06" r="1.89" fill="#dc2626" opacity="0.71" /><circle cx="414.07" cy="366.80" r="1.42" fill="#dc2626" opacity="0.65" /><circle cx="386.42" cy="322.94" r="2.35" fill="#10b981" opacity="0.90" /><circle cx="289.04" cy="288.90" r="1.36" fill="#10b981" opacity="0.61" /><circle cx="367.82" cy="308.02" r="2.34" fill="#10b981" opacity="0.96" /><circle cx="379.34" cy="369.30" r="1.79" fill="#dc2626" opacity="0.72" /><circle cx="367.98" cy="310.84" r="2.33" fill="#10b981" opacity="0.95" /><circle cx="277.06" cy="291.56" r="1.23" fill="#10b981" opacity="0.55" /><circle cx="405.70" cy="267.24" r="1.77" fill="#10b981" opacity="0.80" /><circle cx="477.00" cy="209.90" r="1.09" fill="#3b82f6" opacity="0.44" /><circle cx="308.65" cy="370.76" r="1.33" fill="#dc2626" opacity="0.58" /><circle cx="381.28" cy="303.35" r="2.41" fill="#10b981" opacity="0.97" /><circle cx="390.89" cy="306.01" r="2.41" fill="#10b981" opacity="0.93" /><circle cx="374.59" cy="379.78" r="1.54" fill="#dc2626" opacity="0.66" /><circle cx="378.47" cy="344.46" r="2.02" fill="#10b981" opacity="0.82" /><circle cx="360.73" cy="329.00" r="1.90" fill="#10b981" opacity="0.85" /><circle cx="375.00" cy="393.17" r="1.39" fill="#dc2626" opacity="0.60" /><circle cx="434.91" cy="323.16" r="1.91" fill="#10b981" opacity="0.75" /><circle cx="354.99" cy="307.82" r="2.36" fill="#10b981" opacity="0.92" /><circle cx="415.46" cy="320.92" r="2.13" fill="#10b981" opacity="0.82" /><circle cx="404.33" cy="195.88" r="1.07" fill="#3b82f6" opacity="0.50" /><circle cx="491.23" cy="388.98" r="0.74" fill="#dc2626" opacity="0.33" /><circle cx="332.75" cy="268.22" r="1.54" fill="#10b981" opacity="0.74" /><circle cx="399.94" cy="328.06" r="2.22" fill="#10b981" opacity="0.86" /><circle cx="388.97" cy="327.31" r="2.29" fill="#10b981" opacity="0.88" /><circle cx="269.59" cy="387.88" r="0.85" fill="#dc2626" opacity="0.38" /><circle cx="376.19" cy="341.64" r="2.00" fill="#10b981" opacity="0.83" /><circle cx="370.71" cy="299.30" r="2.49" fill="#10b981" opacity="0.98" /><circle cx="302.34" cy="267.71" r="1.28" fill="#10b981" opacity="0.62" /><circle cx="371.82" cy="201.14" r="1.48" fill="#3b82f6" opacity="0.60" /><circle cx="367.80" cy="353.26" r="2.00" fill="#dc2626" opacity="0.79" /><circle cx="278.10" cy="230.82" r="1.24" fill="#3b82f6" opacity="0.51" /><circle cx="373.47" cy="293.97" r="2.11" fill="#10b981" opacity="0.97" /><circle cx="393.33" cy="316.55" r="2.23" fill="#10b981" opacity="0.90" /><circle cx="380.73" cy="379.62" r="1.69" fill="#dc2626" opacity="0.68" /><circle cx="447.90" cy="353.58" r="1.15" fill="#dc2626" opacity="0.56" /><circle cx="333.28" cy="360.36" r="1.89" fill="#dc2626" opacity="0.72" /><circle cx="325.13" cy="374.44" r="1.29" fill="#dc2626" opacity="0.59" /><circle cx="563.27" cy="249.52" r="0.50" fill="#3b82f6" opacity="0.16" /><circle cx="421.77" cy="166.71" r="0.95" fill="#3b82f6" opacity="0.40" /><circle cx="361.19" cy="309.01" r="2.29" fill="#10b981" opacity="0.93" /><circle cx="384.87" cy="331.52" r="2.29" fill="#10b981" opacity="0.87" /><circle cx="419.74" cy="220.63" r="1.57" fill="#3b82f6" opacity="0.63" /><circle cx="357.94" cy="389.02" r="1.43" fill="#dc2626" opacity="0.61" /><circle cx="374.46" cy="299.57" r="2.50" fill="#10b981" opacity="1.00" /><circle cx="397.15" cy="339.44" r="1.98" fill="#10b981" opacity="0.81" /><circle cx="397.54" cy="191.34" r="1.19" fill="#3b82f6" opacity="0.52" /><circle cx="399.65" cy="381.17" r="1.49" fill="#dc2626" opacity="0.64" /><circle cx="390.86" cy="181.49" r="1.03" fill="#3b82f6" opacity="0.46" /><circle cx="373.02" cy="351.38" r="1.97" fill="#dc2626" opacity="0.79" /><circle cx="395.03" cy="390.09" r="1.49" fill="#dc2626" opacity="0.62" /><circle cx="468.80" cy="206.68" r="0.94" fill="#3b82f6" opacity="0.42" /><circle cx="518.99" cy="386.58" r="0.57" fill="#dc2626" opacity="0.25" /><circle cx="480.70" cy="280.51" r="1.26" fill="#10b981" opacity="0.54" /><circle cx="374.66" cy="301.35" r="2.47" fill="#10b981" opacity="0.99" /><circle cx="291.65" cy="353.59" r="1.38" fill="#dc2626" opacity="0.58" /><circle cx="365.89" cy="344.46" r="2.17" fill="#10b981" opacity="0.83" /><circle cx="400.46" cy="378.26" r="1.54" fill="#dc2626" opacity="0.65" /><circle cx="382.69" cy="245.24" r="1.51" fill="#3b82f6" opacity="0.73" /><circle cx="347.99" cy="377.06" r="1.59" fill="#dc2626" opacity="0.66" /><circle cx="358.98" cy="361.73" r="1.76" fill="#dc2626" opacity="0.73" /><circle cx="282.16" cy="182.50" r="0.84" fill="#3b82f6" opacity="0.36" /><circle cx="366.46" cy="339.94" r="2.08" fill="#10b981" opacity="0.84" /><circle cx="377.75" cy="141.86" r="0.91" fill="#3b82f6" opacity="0.37" /><circle cx="374.87" cy="307.28" r="2.52" fill="#10b981" opacity="0.97" /><circle cx="378.98" cy="382.27" r="1.63" fill="#dc2626" opacity="0.66" /><circle cx="344.54" cy="389.42" r="1.45" fill="#dc2626" opacity="0.61" /><circle cx="426.21" cy="202.77" r="1.29" fill="#3b82f6" opacity="0.54" /><circle cx="378.28" cy="303.54" r="2.43" fill="#10b981" opacity="0.98" /><circle cx="344.52" cy="249.29" r="1.66" fill="#3b82f6" opacity="0.74" /><circle cx="453.67" cy="370.11" r="1.38" fill="#dc2626" opacity="0.57" /><circle cx="421.60" cy="154.61" r="0.92" fill="#3b82f6" opacity="0.38" /><circle cx="382.39" cy="305.04" r="2.39" fill="#10b981" opacity="0.96" /><circle cx="363.04" cy="398.07" r="1.34" fill="#dc2626" opacity="0.57" /><circle cx="374.79" cy="301.79" r="2.46" fill="#10b981" opacity="0.99" /><circle cx="456.33" cy="354.77" r="1.44" fill="#dc2626" opacity="0.59" /><circle cx="390.27" cy="300.68" r="2.40" fill="#10b981" opacity="0.94" /><circle cx="413.65" cy="279.05" r="1.71" fill="#10b981" opacity="0.80" /><circle cx="343.18" cy="371.72" r="1.78" fill="#dc2626" opacity="0.69" /><circle cx="388.20" cy="361.93" r="1.89" fill="#dc2626" opacity="0.75" /><circle cx="317.03" cy="249.02" r="1.40" fill="#3b82f6" opacity="0.64" /><circle cx="385.61" cy="318.47" r="2.45" fill="#10b981" opacity="0.92" /><circle cx="354.73" cy="388.61" r="1.53" fill="#dc2626" opacity="0.63" /><circle cx="410.56" cy="306.02" r="2.20" fill="#10b981" opacity="0.86" /><circle cx="382.22" cy="386.34" r="1.61" fill="#dc2626" opacity="0.65" /><circle cx="396.41" cy="299.73" r="2.30" fill="#10b981" opacity="0.91" /><circle cx="406.32" cy="336.06" r="2.18" fill="#10b981" opacity="0.82" /><circle cx="377.90" cy="342.36" r="1.99" fill="#10b981" opacity="0.82" /><circle cx="378.14" cy="307.42" r="2.53" fill="#10b981" opacity="0.97" /><circle cx="371.40" cy="319.43" r="2.24" fill="#10b981" opacity="0.92" /><circle cx="386.91" cy="233.36" r="1.48" fill="#3b82f6" opacity="0.69" /><circle cx="375.35" cy="370.31" r="1.89" fill="#dc2626" opacity="0.73" /><circle cx="484.55" cy="349.04" r="1.09" fill="#dc2626" opacity="0.47" /><circle cx="379.15" cy="375.54" r="1.73" fill="#dc2626" opacity="0.70" /><circle cx="394.52" cy="303.38" r="2.36" fill="#10b981" opacity="0.92" /><circle cx="353.48" cy="385.21" r="1.49" fill="#dc2626" opacity="0.63" /><circle cx="249.01" cy="218.82" r="0.80" fill="#3b82f6" opacity="0.35" /><circle cx="376.00" cy="375.95" r="1.75" fill="#dc2626" opacity="0.70" /><circle cx="291.79" cy="394.23" r="0.93" fill="#dc2626" opacity="0.43" /><circle cx="242.31" cy="381.25" r="0.77" fill="#dc2626" opacity="0.33" /><circle cx="399.63" cy="349.78" r="1.68" fill="#dc2626" opacity="0.75" /><circle cx="290.32" cy="308.66" r="1.47" fill="#10b981" opacity="0.63" /><circle cx="450.71" cy="291.33" r="1.25" fill="#10b981" opacity="0.62" /><circle cx="367.98" cy="312.29" r="2.48" fill="#10b981" opacity="0.95" /><circle cx="355.58" cy="347.84" r="1.95" fill="#10b981" opacity="0.79" /><circle cx="439.04" cy="340.78" r="1.80" fill="#10b981" opacity="0.70" /><circle cx="361.38" cy="300.34" r="2.40" fill="#10b981" opacity="0.95" /><circle cx="343.13" cy="340.90" r="2.05" fill="#10b981" opacity="0.80" /><circle cx="356.14" cy="366.03" r="1.79" fill="#dc2626" opacity="0.72" /><circle cx="373.66" cy="304.84" r="2.42" fill="#10b981" opacity="0.98" /><circle cx="366.13" cy="368.86" r="1.71" fill="#dc2626" opacity="0.71" /><circle cx="340.90" cy="355.35" r="1.98" fill="#dc2626" opacity="0.75" /><circle cx="292.17" cy="252.53" r="1.29" fill="#3b82f6" opacity="0.57" /><circle cx="385.82" cy="169.73" r="1.11" fill="#3b82f6" opacity="0.46" /><circle cx="245.88" cy="362.47" r="1.01" fill="#dc2626" opacity="0.41" /><circle cx="371.15" cy="351.01" r="2.04" fill="#dc2626" opacity="0.80" /><circle cx="397.28" cy="248.86" r="1.50" fill="#3b82f6" opacity="0.73" /><circle cx="297.89" cy="203.27" r="1.00" fill="#3b82f6" opacity="0.45" /><circle cx="378.49" cy="305.80" r="2.54" fill="#10b981" opacity="0.97" /><circle cx="399.85" cy="364.50" r="1.77" fill="#dc2626" opacity="0.72" /><circle cx="410.95" cy="310.28" r="2.20" fill="#10b981" opacity="0.85" /><circle cx="350.52" cy="345.45" r="2.12" fill="#10b981" opacity="0.80" /><circle cx="411.01" cy="166.68" r="0.91" fill="#3b82f6" opacity="0.40" /><circle cx="352.20" cy="197.42" r="1.33" fill="#3b82f6" opacity="0.56" /><circle cx="497.63" cy="271.42" r="1.16" fill="#10b981" opacity="0.48" /><circle cx="363.34" cy="335.08" r="2.05" fill="#10b981" opacity="0.85" /><circle cx="394.96" cy="311.95" r="2.24" fill="#10b981" opacity="0.91" /><circle cx="379.88" cy="342.30" r="2.04" fill="#10b981" opacity="0.83" /><circle cx="390.67" cy="320.93" r="2.34" fill="#10b981" opacity="0.90" /><circle cx="376.91" cy="340.08" r="2.08" fill="#10b981" opacity="0.84" /><circle cx="376.66" cy="353.87" r="1.96" fill="#dc2626" opacity="0.78" /><circle cx="260.15" cy="292.41" r="1.25" fill="#10b981" opacity="0.52" /><circle cx="383.11" cy="376.48" r="1.31" fill="#dc2626" opacity="0.63" /><circle cx="458.56" cy="392.57" r="1.14" fill="#dc2626" opacity="0.48" /><circle cx="373.38" cy="143.10" r="0.92" fill="#3b82f6" opacity="0.37" /><circle cx="374.68" cy="340.09" r="2.10" fill="#10b981" opacity="0.84" /><circle cx="401.72" cy="337.77" r="2.12" fill="#10b981" opacity="0.82" /><circle cx="371.83" cy="339.33" r="2.06" fill="#10b981" opacity="0.84" /><circle cx="333.08" cy="363.41" r="1.45" fill="#dc2626" opacity="0.66" /><circle cx="369.18" cy="364.24" r="1.82" fill="#dc2626" opacity="0.74" /><circle cx="406.03" cy="305.68" r="2.24" fill="#10b981" opacity="0.88" /><circle cx="369.53" cy="241.47" r="1.66" fill="#3b82f6" opacity="0.74" /><circle cx="278.01" cy="276.29" r="1.09" fill="#10b981" opacity="0.52" /><circle cx="375.93" cy="332.97" r="2.11" fill="#10b981" opacity="0.86" /><circle cx="365.98" cy="359.17" r="1.96" fill="#dc2626" opacity="0.77" /><circle cx="387.20" cy="318.82" r="1.91" fill="#10b981" opacity="0.90" /><circle cx="385.12" cy="304.01" r="2.38" fill="#10b981" opacity="0.96" /><circle cx="331.70" cy="182.87" r="1.15" fill="#3b82f6" opacity="0.48" /><circle cx="374.26" cy="299.60" r="2.50" fill="#10b981" opacity="1.00" /><circle cx="380.49" cy="340.79" r="2.08" fill="#10b981" opacity="0.83" /><circle cx="359.20" cy="363.90" r="1.50" fill="#dc2626" opacity="0.69" /><circle cx="350.64" cy="308.67" r="2.29" fill="#10b981" opacity="0.90" /><circle cx="471.85" cy="286.15" r="1.34" fill="#10b981" opacity="0.58" /><circle cx="404.11" cy="339.12" r="2.06" fill="#10b981" opacity="0.81" /><circle cx="366.20" cy="360.22" r="1.98" fill="#dc2626" opacity="0.76" /><circle cx="436.68" cy="413.65" r="1.08" fill="#dc2626" opacity="0.45" /><circle cx="374.88" cy="356.46" r="1.94" fill="#dc2626" opacity="0.77" /><circle cx="374.07" cy="381.66" r="1.69" fill="#dc2626" opacity="0.67" /><circle cx="365.93" cy="354.52" r="1.98" fill="#dc2626" opacity="0.78" /><circle cx="365.49" cy="327.84" r="2.29" fill="#10b981" opacity="0.89" /><circle cx="327.24" cy="266.75" r="1.63" fill="#10b981" opacity="0.74" /><circle cx="285.19" cy="250.17" r="1.26" fill="#3b82f6" opacity="0.55" /><circle cx="368.67" cy="299.18" r="2.45" fill="#10b981" opacity="0.97" /><circle cx="284.52" cy="222.74" r="0.95" fill="#3b82f6" opacity="0.44" /><circle cx="369.09" cy="324.07" r="2.20" fill="#10b981" opacity="0.90" /><circle cx="371.55" cy="361.69" r="1.77" fill="#dc2626" opacity="0.74" /><circle cx="496.49" cy="301.62" r="0.89" fill="#10b981" opacity="0.42" /><circle cx="375.21" cy="360.81" r="1.89" fill="#dc2626" opacity="0.76" /><circle cx="378.84" cy="309.08" r="2.36" fill="#10b981" opacity="0.96" /><circle cx="264.26" cy="327.34" r="1.33" fill="#10b981" opacity="0.54" /><circle cx="361.54" cy="328.00" r="2.12" fill="#10b981" opacity="0.87" /><circle cx="437.61" cy="278.69" r="1.55" fill="#10b981" opacity="0.70" /><circle cx="345.38" cy="326.43" r="2.06" fill="#10b981" opacity="0.84" /><circle cx="384.78" cy="368.99" r="1.71" fill="#dc2626" opacity="0.71" /><circle cx="341.18" cy="330.28" r="2.10" fill="#10b981" opacity="0.82" /><circle cx="366.17" cy="313.50" r="2.46" fill="#10b981" opacity="0.94" /><circle cx="381.38" cy="330.24" r="2.11" fill="#10b981" opacity="0.87" /><circle cx="366.36" cy="370.56" r="1.69" fill="#dc2626" opacity="0.70" /><circle cx="360.75" cy="326.41" r="2.16" fill="#10b981" opacity="0.88" /><circle cx="329.76" cy="328.61" r="2.03" fill="#10b981" opacity="0.79" /><circle cx="427.14" cy="242.07" r="1.48" fill="#3b82f6" opacity="0.66" /><circle cx="369.74" cy="338.81" r="2.26" fill="#10b981" opacity="0.85" /><circle cx="434.18" cy="376.50" r="1.12" fill="#dc2626" opacity="0.54" /><circle cx="316.54" cy="320.59" r="1.61" fill="#10b981" opacity="0.72" /><circle cx="369.74" cy="310.36" r="2.34" fill="#10b981" opacity="0.95" /><circle cx="227.02" cy="251.13" r="0.65" fill="#3b82f6" opacity="0.30" /><circle cx="388.36" cy="384.55" r="1.55" fill="#dc2626" opacity="0.64" /><circle cx="353.15" cy="322.52" r="2.31" fill="#10b981" opacity="0.88" /><circle cx="376.23" cy="344.66" r="2.12" fill="#10b981" opacity="0.83" /><circle cx="384.80" cy="334.17" r="2.06" fill="#10b981" opacity="0.85" /><circle cx="377.51" cy="299.32" r="2.49" fill="#10b981" opacity="0.99" /><circle cx="386.28" cy="415.59" r="1.31" fill="#dc2626" opacity="0.53" /><circle cx="428.94" cy="208.05" r="1.09" fill="#3b82f6" opacity="0.50" /><circle cx="375.21" cy="353.62" r="1.99" fill="#dc2626" opacity="0.79" /><circle cx="393.37" cy="321.63" r="2.32" fill="#10b981" opacity="0.89" /><circle cx="378.57" cy="299.24" r="2.48" fill="#10b981" opacity="0.99" /><circle cx="351.66" cy="205.35" r="1.46" fill="#3b82f6" opacity="0.60" /><circle cx="314.55" cy="208.52" r="1.04" fill="#3b82f6" opacity="0.49" /><circle cx="374.80" cy="300.07" r="2.50" fill="#10b981" opacity="1.00" /><circle cx="356.75" cy="327.99" r="2.16" fill="#10b981" opacity="0.87" /><circle cx="546.43" cy="236.80" r="0.50" fill="#3b82f6" opacity="0.20" /><circle cx="378.39" cy="348.95" r="1.96" fill="#10b981" opacity="0.80" /><circle cx="374.74" cy="322.46" r="2.23" fill="#10b981" opacity="0.91" /><circle cx="401.03" cy="349.74" r="1.96" fill="#10b981" opacity="0.78" /><circle cx="350.69" cy="328.59" r="2.08" fill="#10b981" opacity="0.85" /><circle cx="425.39" cy="378.31" r="1.18" fill="#dc2626" opacity="0.56" /><circle cx="398.16" cy="396.88" r="1.30" fill="#dc2626" opacity="0.57" /><circle cx="371.10" cy="337.64" r="2.05" fill="#10b981" opacity="0.84" /><circle cx="352.35" cy="304.88" r="2.33" fill="#10b981" opacity="0.91" /><circle cx="372.83" cy="341.62" r="1.65" fill="#dc2626" opacity="0.80" /><circle cx="396.21" cy="345.88" r="2.18" fill="#10b981" opacity="0.81" /><circle cx="443.13" cy="257.58" r="1.41" fill="#10b981" opacity="0.64" /><circle cx="376.89" cy="341.16" r="2.08" fill="#10b981" opacity="0.83" /><circle cx="396.21" cy="325.22" r="2.16" fill="#10b981" opacity="0.87" /><circle cx="347.12" cy="321.40" r="1.65" fill="#10b981" opacity="0.82" /><circle cx="383.82" cy="403.09" r="1.39" fill="#dc2626" opacity="0.57" /><circle cx="395.03" cy="325.95" r="2.14" fill="#10b981" opacity="0.87" /><circle cx="377.19" cy="367.48" r="1.80" fill="#dc2626" opacity="0.73" /><circle cx="323.71" cy="270.92" r="1.62" fill="#10b981" opacity="0.73" /><circle cx="281.47" cy="273.35" r="1.23" fill="#10b981" opacity="0.56" /><circle cx="386.64" cy="305.75" r="2.35" fill="#10b981" opacity="0.95" /><circle cx="371.76" cy="159.20" r="1.03" fill="#3b82f6" opacity="0.42" /><circle cx="400.36" cy="233.79" r="1.60" fill="#3b82f6" opacity="0.69" /><circle cx="321.07" cy="183.80" r="1.19" fill="#3b82f6" opacity="0.48" /><circle cx="445.67" cy="188.20" r="0.96" fill="#3b82f6" opacity="0.42" /><circle cx="373.90" cy="280.66" r="2.02" fill="#10b981" opacity="0.91" /><circle cx="350.68" cy="414.10" r="1.29" fill="#dc2626" opacity="0.53" /><circle cx="381.99" cy="358.95" r="2.09" fill="#dc2626" opacity="0.78" /><circle cx="340.88" cy="344.96" r="1.99" fill="#10b981" opacity="0.78" /><circle cx="389.74" cy="222.80" r="1.63" fill="#3b82f6" opacity="0.67" /><circle cx="383.05" cy="360.78" r="1.84" fill="#dc2626" opacity="0.75" /><circle cx="377.64" cy="301.58" r="2.45" fill="#10b981" opacity="0.99" /><circle cx="360.71" cy="318.04" r="2.22" fill="#10b981" opacity="0.91" /><circle cx="350.37" cy="359.52" r="1.92" fill="#dc2626" opacity="0.75" /><circle cx="317.83" cy="206.21" r="1.18" fill="#3b82f6" opacity="0.52" /><circle cx="303.83" cy="361.23" r="1.38" fill="#dc2626" opacity="0.59" /><circle cx="384.97" cy="210.64" r="1.59" fill="#3b82f6" opacity="0.64" /><circle cx="395.10" cy="153.09" r="0.93" fill="#3b82f6" opacity="0.39" /><circle cx="376.08" cy="360.82" r="1.89" fill="#dc2626" opacity="0.76" /><circle cx="473.74" cy="272.48" r="1.15" fill="#10b981" opacity="0.53" /><circle cx="343.34" cy="360.54" r="1.86" fill="#dc2626" opacity="0.73" /><circle cx="359.56" cy="368.67" r="1.81" fill="#dc2626" opacity="0.72" /><circle cx="392.51" cy="302.67" r="2.38" fill="#10b981" opacity="0.93" /><circle cx="296.61" cy="365.15" r="1.15" fill="#dc2626" opacity="0.53" /><circle cx="390.98" cy="367.58" r="1.89" fill="#dc2626" opacity="0.73" /><circle cx="433.66" cy="309.01" r="1.65" fill="#10b981" opacity="0.74" /><circle cx="339.76" cy="248.93" r="1.41" fill="#3b82f6" opacity="0.69" /><circle cx="353.40" cy="301.26" r="2.30" fill="#10b981" opacity="0.91" /><circle cx="374.07" cy="299.37" r="2.50" fill="#10b981" opacity="1.00" /><circle cx="315.83" cy="198.84" r="1.15" fill="#3b82f6" opacity="0.50" /><circle cx="374.71" cy="219.16" r="1.42" fill="#3b82f6" opacity="0.64" /><circle cx="384.81" cy="168.61" r="1.13" fill="#3b82f6" opacity="0.46" /><circle cx="418.99" cy="318.56" r="1.68" fill="#10b981" opacity="0.78" /><circle cx="481.56" cy="350.28" r="1.02" fill="#dc2626" opacity="0.46" /><circle cx="363.86" cy="370.93" r="1.81" fill="#dc2626" opacity="0.72" /><circle cx="388.68" cy="412.51" r="1.16" fill="#dc2626" opacity="0.51" /><circle cx="371.21" cy="397.48" r="1.53" fill="#dc2626" opacity="0.61" /><circle cx="389.32" cy="301.66" r="2.40" fill="#10b981" opacity="0.94" /><circle cx="378.48" cy="302.66" r="2.53" fill="#10b981" opacity="0.98" /><circle cx="397.38" cy="327.34" r="2.27" fill="#10b981" opacity="0.87" /><circle cx="378.58" cy="210.73" r="1.59" fill="#3b82f6" opacity="0.64" /><circle cx="429.93" cy="221.73" r="1.19" fill="#3b82f6" opacity="0.55" /><circle cx="393.94" cy="194.94" r="1.26" fill="#3b82f6" opacity="0.54" /><circle cx="325.68" cy="419.68" r="1.08" fill="#dc2626" opacity="0.45" /><circle cx="373.96" cy="388.77" r="1.55" fill="#dc2626" opacity="0.64" /><circle cx="356.84" cy="312.89" r="2.23" fill="#10b981" opacity="0.91" /><circle cx="277.29" cy="338.06" r="1.24" fill="#10b981" opacity="0.54" /><circle cx="375.85" cy="299.79" r="2.49" fill="#10b981" opacity="1.00" /><circle cx="352.04" cy="325.69" r="2.10" fill="#10b981" opacity="0.86" /><circle cx="376.50" cy="300.53" r="2.48" fill="#10b981" opacity="0.99" /><text x="780" y="40" class="text-main" font-size="22" font-weight="800">Neuron</text><text x="862" y="40" font-family="'Inter', sans-serif" font-size="22" font-weight="800" fill="#10b981">FS V2</text><text x="780" y="60" class="text-mono" fill="#94a3b8">Autopilot Nerve Center</text><line x1="750" y1="80" x2="1200" y2="80" class="border" /><circle cx="790" cy="115" r="5" fill="#10b981" /><circle cx="790" cy="115" r="5" fill="none" stroke="#10b981" stroke-width="2" class="pulse" /><text x="810" y="120" class="text-main" font-size="14" font-weight="600">System Listening &amp; Ready</text><line x1="750" y1="150" x2="1200" y2="150" class="border" /><text x="780" y="190" class="text-mono">[SYSTEM] Booting Strangler Fig CLI Router...</text><text x="780" y="215" class="text-mono">[SYSTEM] Neural filesystem mounted successfully.</text><text x="780" y="240" class="text-mono">[12:43:00] [WARN] [EVOLVE:proceed] tag detected.</text><text x="780" y="265" class="text-mono" fill="#10b981">[12:43:00] [INFO] CDP Injection Cooldown: 60s</text><text x="780" y="290" class="text-mono blink" font-weight="700">_</text><line x1="750" y1="480" x2="1200" y2="480" class="border" /><text x="780" y="520" font-family="'JetBrains Mono', monospace" font-size="10" fill="#94a3b8" letter-spacing="1">ACTIVE NEURONS</text><text x="780" y="550" class="text-main" font-size="24" font-weight="800">420</text><text x="1000" y="520" font-family="'JetBrains Mono', monospace" font-size="10" fill="#94a3b8" letter-spacing="1">TOTAL ACTIVATION</text><text x="1000" y="550" class="text-main" font-size="24" font-weight="800">9121</text></svg>