<svg xmlns="http://www.w3.org/2000/svg" viewBox="0 0 1200 600" width="1200" height="600">
	<defs>
		<style>
			@import url('https://fonts.googleapis.com/css2?family=Inter:wght@400;800&amp;family=JetBrains+Mono:wght@400;700&amp;display=swap');
			.bg { fill: #030305; }
			.border { stroke: rgba(255,255,255,0.08); stroke-width: 1; }
			.accent { fill: #10b981; }
			.text-main { fill: #f8fafc; font-family: 'Inter', sans-serif; }
			.text-mono { fill: #a1a1aa; font-family: 'JetBrains Mono', monospace; font-size: 12px; }
			.pulse { animation: pulseAnim 2s infinite; }
			@keyframes pulseAnim {
				0% { r: 5; opacity: 1; }
				50% { r: 15; opacity: 0; }
				100% { r: 5; opacity: 0; }
			}
			.blink { animation: blinkAnim 1s step-end infinite; }
			@keyframes blinkAnim { 50% { opacity: 0; } }
		</style>
		<radialGradient id="hologram" cx="50%" cy="50%" r="50%">
			<stop offset="0%" stop-color="#0a0a14" />
			<stop offset="100%" stop-color="#030305" />
		</radialGradient>
	</defs>
	<rect width="1200" height="600" fill="url(#hologram)" /><rect x="750" y="0" width="450" height="600" fill="rgba(15, 20, 30, 0.6)" class="border" /><line x1="750" y1="0" x2="750" y2="600" class="border" /><circle cx="336.88" cy="279.36" r="1.58" fill="#10b981" opacity="0.78" /><circle cx="410.86" cy="228.02" r="1.42" fill="#3b82f6" opacity="0.64" /><circle cx="364.27" cy="370.65" r="1.77" fill="#dc2626" opacity="0.71" /><circle cx="286.72" cy="204.45" r="1.11" fill="#3b82f6" opacity="0.46" /><circle cx="379.27" cy="156.76" r="0.95" fill="#3b82f6" opacity="0.40" /><circle cx="387.57" cy="219.49" r="1.64" fill="#3b82f6" opacity="0.67" /><circle cx="273.69" cy="355.70" r="1.25" fill="#dc2626" opacity="0.52" /><circle cx="366.28" cy="337.40" r="2.19" fill="#10b981" opacity="0.85" /><circle cx="415.49" cy="210.40" r="1.13" fill="#3b82f6" opacity="0.53" /><circle cx="358.98" cy="409.72" r="1.29" fill="#dc2626" opacity="0.54" /><circle cx="376.04" cy="321.97" r="2.40" fill="#10b981" opacity="0.92" /><circle cx="408.01" cy="332.14" r="1.66" fill="#10b981" opacity="0.78" /><circle cx="378.44" cy="299.01" r="2.48" fill="#10b981" opacity="0.99" /><circle cx="375.70" cy="213.88" r="1.28" fill="#3b82f6" opacity="0.60" /><circle cx="471.88" cy="375.20" r="1.10" fill="#dc2626" opacity="0.47" /><circle cx="449.83" cy="326.57" r="1.46" fill="#10b981" opacity="0.65" /><circle cx="397.07" cy="200.53" r="1.28" fill="#3b82f6" opacity="0.56" /><circle cx="385.60" cy="335.38" r="1.72" fill="#10b981" opacity="0.82" /><circle cx="377.69" cy="401.30" r="1.45" fill="#dc2626" opacity="0.59" /><circle cx="374.97" cy="307.37" r="2.51" fill="#10b981" opacity="0.97" /><circle cx="347.15" cy="377.00" r="1.58" fill="#dc2626" opacity="0.66" /><circle cx="427.87" cy="371.42" r="1.22" fill="#dc2626" opacity="0.58" /><circle cx="324.22" cy="228.64" r="1.60" fill="#3b82f6" opacity="0.65" /><circle cx="510.62" cy="380.25" r="0.65" fill="#dc2626" opacity="0.29" /><circle cx="435.59" cy="241.57" r="1.29" fill="#3b82f6" opacity="0.61" /><circle cx="320.72" cy="232.44" r="1.39" fill="#3b82f6" opacity="0.62" /><circle cx="373.13" cy="357.58" r="2.01" fill="#dc2626" opacity="0.78" /><circle cx="295.69" cy="355.37" r="1.19" fill="#dc2626" opacity="0.55" /><circle cx="375.47" cy="300.50" r="2.49" fill="#10b981" opacity="1.00" /><circle cx="347.50" cy="280.56" r="1.86" fill="#10b981" opacity="0.85" /><circle cx="377.23" cy="344.09" r="2.14" fill="#10b981" opacity="0.83" /><circle cx="375.21" cy="397.03" r="1.53" fill="#dc2626" opacity="0.61" /><circle cx="375.50" cy="339.45" r="2.20" fill="#10b981" opacity="0.85" /><circle cx="366.44" cy="332.72" r="2.09" fill="#10b981" opacity="0.86" /><circle cx="400.39" cy="317.07" r="2.17" fill="#10b981" opacity="0.88" /><circle cx="377.96" cy="335.77" r="2.29" fill="#10b981" opacity="0.86" /><circle cx="377.45" cy="313.67" r="2.46" fill="#10b981" opacity="0.95" /><circle cx="382.14" cy="312.90" r="2.31" fill="#10b981" opacity="0.94" /><circle cx="319.72" cy="235.96" r="1.54" fill="#3b82f6" opacity="0.65" /><circle cx="286.95" cy="363.93" r="1.04" fill="#dc2626" opacity="0.49" /><circle cx="401.32" cy="318.09" r="1.67" fill="#10b981" opacity="0.84" /><circle cx="370.36" cy="307.84" r="2.36" fill="#10b981" opacity="0.96" /><circle cx="347.46" cy="354.78" r="2.04" fill="#dc2626" opacity="0.77" /><circle cx="454.15" cy="363.46" r="1.37" fill="#dc2626" opacity="0.57" /><circle cx="473.81" cy="338.53" r="1.35" fill="#10b981" opacity="0.56" /><circle cx="366.18" cy="309.08" r="2.34" fill="#10b981" opacity="0.95" /><circle cx="409.02" cy="411.91" r="1.20" fill="#dc2626" opacity="0.51" /><circle cx="339.60" cy="364.28" r="1.69" fill="#dc2626" opacity="0.70" /><circle cx="393.00" cy="402.44" r="1.40" fill="#dc2626" opacity="0.57" /><circle cx="459.81" cy="198.88" r="1.04" fill="#3b82f6" opacity="0.44" /><circle cx="305.85" cy="386.70" r="1.26" fill="#dc2626" opacity="0.53" /><circle cx="442.17" cy="261.07" r="1.46" fill="#10b981" opacity="0.65" /><circle cx="352.61" cy="361.56" r="2.02" fill="#dc2626" opacity="0.75" /><circle cx="365.74" cy="215.39" r="1.38" fill="#3b82f6" opacity="0.62" /><circle cx="376.38" cy="359.91" r="1.89" fill="#dc2626" opacity="0.76" /><circle cx="424.30" cy="310.73" r="1.55" fill="#10b981" opacity="0.75" /><circle cx="368.35" cy="300.19" r="2.47" fill="#10b981" opacity="0.97" /><circle cx="345.42" cy="415.77" r="1.08" fill="#dc2626" opacity="0.48" /><circle cx="236.73" cy="248.01" r="0.87" fill="#3b82f6" opacity="0.37" /><circle cx="520.99" cy="205.39" r="0.58" fill="#3b82f6" opacity="0.25" /><circle cx="372.75" cy="301.60" r="2.54" fill="#10b981" opacity="0.99" /><circle cx="364.20" cy="379.24" r="1.66" fill="#dc2626" opacity="0.68" /><circle cx="357.50" cy="318.19" r="2.20" fill="#10b981" opacity="0.90" /><circle cx="395.96" cy="158.32" r="0.93" fill="#3b82f6" opacity="0.39" /><circle cx="354.85" cy="312.19" r="2.38" fill="#10b981" opacity="0.91" /><circle cx="385.48" cy="308.85" r="2.45" fill="#10b981" opacity="0.95" /><circle cx="374.99" cy="396.98" r="1.53" fill="#dc2626" opacity="0.61" /><circle cx="470.37" cy="362.85" r="1.24" fill="#dc2626" opacity="0.52" /><circle cx="365.35" cy="343.83" r="2.14" fill="#10b981" opacity="0.83" /><circle cx="390.96" cy="211.32" r="1.44" fill="#3b82f6" opacity="0.61" /><circle cx="366.34" cy="379.69" r="1.52" fill="#dc2626" opacity="0.65" /><circle cx="414.26" cy="369.50" r="1.82" fill="#dc2626" opacity="0.69" /><circle cx="401.31" cy="386.12" r="1.30" fill="#dc2626" opacity="0.59" /><circle cx="394.83" cy="331.36" r="2.26" fill="#10b981" opacity="0.86" /><circle cx="376.80" cy="308.90" r="2.37" fill="#10b981" opacity="0.96" /><circle cx="462.11" cy="370.32" r="1.18" fill="#dc2626" opacity="0.51" /><circle cx="370.05" cy="309.65" r="2.52" fill="#10b981" opacity="0.96" /><circle cx="384.45" cy="199.01" r="1.46" fill="#3b82f6" opacity="0.59" /><circle cx="394.39" cy="299.44" r="2.33" fill="#10b981" opacity="0.92" /><circle cx="213.06" cy="347.75" r="0.62" fill="#dc2626" opacity="0.27" /><circle cx="405.40" cy="397.45" r="1.30" fill="#dc2626" opacity="0.56" /><circle cx="371.23" cy="299.27" r="2.47" fill="#10b981" opacity="0.98" /><circle cx="397.78" cy="265.27" r="1.69" fill="#10b981" opacity="0.80" /><circle cx="435.77" cy="260.03" r="1.29" fill="#10b981" opacity="0.64" /><circle cx="378.29" cy="308.93" r="2.50" fill="#10b981" opacity="0.96" /><circle cx="403.96" cy="338.28" r="2.00" fill="#10b981" opacity="0.81" /><circle cx="373.08" cy="340.77" r="2.06" fill="#10b981" opacity="0.83" /><circle cx="373.13" cy="152.72" r="0.97" fill="#3b82f6" opacity="0.40" /><circle cx="339.59" cy="263.82" r="1.72" fill="#10b981" opacity="0.77" /><circle cx="375.71" cy="299.39" r="2.53" fill="#10b981" opacity="1.00" /><circle cx="318.76" cy="413.52" r="1.14" fill="#dc2626" opacity="0.47" /><circle cx="380.57" cy="299.05" r="2.46" fill="#10b981" opacity="0.98" /><circle cx="373.32" cy="330.66" r="2.12" fill="#10b981" opacity="0.87" /><circle cx="382.47" cy="385.17" r="1.66" fill="#dc2626" opacity="0.66" /><circle cx="369.34" cy="324.46" r="2.17" fill="#10b981" opacity="0.90" /><circle cx="458.75" cy="231.56" r="1.07" fill="#3b82f6" opacity="0.50" /><circle cx="363.56" cy="352.64" r="1.96" fill="#dc2626" opacity="0.78" /><circle cx="349.01" cy="309.35" r="2.28" fill="#10b981" opacity="0.89" /><circle cx="315.64" cy="300.85" r="1.57" fill="#10b981" opacity="0.73" /><circle cx="386.18" cy="337.91" r="2.03" fill="#10b981" opacity="0.84" /><circle cx="347.39" cy="339.63" r="1.99" fill="#10b981" opacity="0.80" /><circle cx="381.53" cy="316.78" r="2.26" fill="#10b981" opacity="0.93" /><circle cx="400.02" cy="352.05" r="1.90" fill="#dc2626" opacity="0.77" /><circle cx="375.20" cy="400.52" r="1.46" fill="#dc2626" opacity="0.59" /><circle cx="394.62" cy="383.11" r="1.52" fill="#dc2626" opacity="0.64" /><circle cx="300.10" cy="280.53" r="1.52" fill="#10b981" opacity="0.66" /><circle cx="408.16" cy="329.47" r="2.07" fill="#10b981" opacity="0.82" /><circle cx="375.02" cy="300.00" r="2.50" fill="#10b981" opacity="1.00" /><circle cx="377.82" cy="317.13" r="2.25" fill="#10b981" opacity="0.93" /><circle cx="506.91" cy="288.46" r="0.75" fill="#10b981" opacity="0.36" /><circle cx="434.37" cy="338.30" r="1.89" fill="#10b981" opacity="0.73" /><circle cx="358.13" cy="322.32" r="2.18" fill="#10b981" opacity="0.89" /><circle cx="419.87" cy="338.30" r="1.96" fill="#10b981" opacity="0.77" /><circle cx="367.36" cy="333.29" r="2.08" fill="#10b981" opacity="0.86" /><circle cx="361.04" cy="245.48" r="1.73" fill="#3b82f6" opacity="0.75" /><circle cx="307.88" cy="199.88" r="1.07" fill="#3b82f6" opacity="0.47" /><circle cx="391.24" cy="323.92" r="2.15" fill="#10b981" opacity="0.88" /><circle cx="386.59" cy="371.85" r="1.77" fill="#dc2626" opacity="0.71" /><circle cx="398.75" cy="331.78" r="2.19" fill="#10b981" opacity="0.85" /><circle cx="401.31" cy="298.54" r="1.89" fill="#10b981" opacity="0.88" /><circle cx="342.65" cy="311.67" r="2.20" fill="#10b981" opacity="0.86" /><circle cx="374.97" cy="355.09" r="1.89" fill="#dc2626" opacity="0.77" /><circle cx="348.64" cy="263.20" r="1.76" fill="#10b981" opacity="0.80" /><circle cx="385.15" cy="220.37" r="1.64" fill="#3b82f6" opacity="0.67" /><circle cx="376.61" cy="313.80" r="2.31" fill="#10b981" opacity="0.94" /><circle cx="171.33" cy="254.16" r="0.50" fill="#10b981" opacity="0.14" /><circle cx="463.40" cy="384.53" r="1.15" fill="#dc2626" opacity="0.48" /><circle cx="334.38" cy="320.55" r="2.15" fill="#10b981" opacity="0.83" /><circle cx="395.24" cy="329.79" r="2.08" fill="#10b981" opacity="0.85" /><circle cx="378.38" cy="308.26" r="2.49" fill="#10b981" opacity="0.97" /><circle cx="365.11" cy="301.56" r="2.45" fill="#10b981" opacity="0.96" /><circle cx="248.01" cy="366.22" r="1.04" fill="#dc2626" opacity="0.42" /><circle cx="227.88" cy="322.96" r="0.68" fill="#10b981" opacity="0.31" /><circle cx="365.26" cy="373.33" r="1.80" fill="#dc2626" opacity="0.71" /><circle cx="337.42" cy="247.12" r="1.57" fill="#3b82f6" opacity="0.71" /><circle cx="391.20" cy="326.91" r="2.12" fill="#10b981" opacity="0.87" /><circle cx="376.17" cy="383.38" r="1.43" fill="#dc2626" opacity="0.63" /><circle cx="392.79" cy="400.09" r="1.39" fill="#dc2626" opacity="0.58" /><circle cx="363.28" cy="142.42" r="0.91" fill="#3b82f6" opacity="0.37" /><circle cx="387.29" cy="360.17" r="1.95" fill="#dc2626" opacity="0.76" /><circle cx="395.22" cy="299.42" r="2.31" fill="#10b981" opacity="0.92" /><circle cx="424.51" cy="339.57" r="1.98" fill="#10b981" opacity="0.76" /><circle cx="324.18" cy="219.94" r="1.37" fill="#3b82f6" opacity="0.59" /><circle cx="387.89" cy="368.64" r="1.72" fill="#dc2626" opacity="0.71" /><circle cx="384.39" cy="362.19" r="1.90" fill="#dc2626" opacity="0.75" /><circle cx="383.79" cy="299.31" r="2.43" fill="#10b981" opacity="0.96" /><circle cx="414.00" cy="405.87" r="1.13" fill="#dc2626" opacity="0.50" /><circle cx="348.47" cy="350.48" r="1.56" fill="#dc2626" opacity="0.73" /><circle cx="366.78" cy="199.58" r="1.45" fill="#3b82f6" opacity="0.59" /><circle cx="332.97" cy="240.80" r="1.52" fill="#3b82f6" opacity="0.68" /><circle cx="372.52" cy="335.90" r="2.12" fill="#10b981" opacity="0.85" /><circle cx="408.73" cy="288.19" r="1.84" fill="#10b981" opacity="0.84" /><circle cx="390.25" cy="301.65" r="2.40" fill="#10b981" opacity="0.94" /><circle cx="349.47" cy="195.21" r="1.22" fill="#3b82f6" opacity="0.53" /><circle cx="486.59" cy="391.25" r="0.95" fill="#dc2626" opacity="0.40" /><circle cx="325.05" cy="298.01" r="1.53" fill="#10b981" opacity="0.75" /><circle cx="378.87" cy="302.01" r="2.44" fill="#10b981" opacity="0.98" /><circle cx="460.30" cy="174.31" r="0.76" fill="#3b82f6" opacity="0.33" /><circle cx="321.43" cy="277.20" r="1.49" fill="#10b981" opacity="0.72" /><circle cx="433.67" cy="237.28" r="1.45" fill="#3b82f6" opacity="0.63" /><circle cx="372.99" cy="340.60" r="2.26" fill="#10b981" opacity="0.85" /><circle cx="392.40" cy="373.07" r="1.40" fill="#dc2626" opacity="0.65" /><circle cx="508.11" cy="275.44" r="0.89" fill="#10b981" opacity="0.40" /><circle cx="369.90" cy="343.19" r="2.01" fill="#10b981" opacity="0.82" /><circle cx="409.68" cy="227.89" r="1.40" fill="#3b82f6" opacity="0.64" /><circle cx="463.97" cy="329.71" r="1.21" fill="#10b981" opacity="0.56" /><circle cx="378.91" cy="364.96" r="1.55" fill="#dc2626" opacity="0.70" /><circle cx="509.63" cy="385.10" r="0.83" fill="#dc2626" opacity="0.34" /><circle cx="526.32" cy="230.17" r="0.61" fill="#3b82f6" opacity="0.27" /><circle cx="391.09" cy="309.49" r="2.43" fill="#10b981" opacity="0.93" /><circle cx="372.48" cy="344.97" r="2.05" fill="#10b981" opacity="0.82" /><circle cx="356.86" cy="417.71" r="1.18" fill="#dc2626" opacity="0.50" /><circle cx="391.01" cy="222.53" r="1.62" fill="#3b82f6" opacity="0.67" /><circle cx="362.78" cy="219.39" r="1.61" fill="#3b82f6" opacity="0.66" /><circle cx="371.54" cy="354.67" r="2.02" fill="#dc2626" opacity="0.79" /><circle cx="307.04" cy="407.36" r="1.15" fill="#dc2626" opacity="0.48" /><circle cx="360.31" cy="351.12" r="1.94" fill="#dc2626" opacity="0.78" /><circle cx="348.72" cy="353.79" r="1.96" fill="#dc2626" opacity="0.77" /><circle cx="358.17" cy="334.05" r="2.26" fill="#10b981" opacity="0.86" /><circle cx="336.52" cy="387.32" r="1.52" fill="#dc2626" opacity="0.61" /><circle cx="337.95" cy="202.74" r="1.13" fill="#3b82f6" opacity="0.52" /><circle cx="398.96" cy="338.75" r="2.13" fill="#10b981" opacity="0.82" /><circle cx="362.64" cy="299.57" r="2.39" fill="#10b981" opacity="0.95" /><circle cx="348.59" cy="352.35" r="1.95" fill="#dc2626" opacity="0.77" /><circle cx="376.13" cy="301.01" r="2.47" fill="#10b981" opacity="0.99" /><circle cx="360.45" cy="359.71" r="2.05" fill="#dc2626" opacity="0.77" /><circle cx="375.68" cy="299.37" r="2.50" fill="#10b981" opacity="1.00" /><circle cx="395.49" cy="212.33" r="1.49" fill="#3b82f6" opacity="0.62" /><circle cx="380.64" cy="332.02" r="2.14" fill="#10b981" opacity="0.87" /><circle cx="371.35" cy="329.74" r="2.34" fill="#10b981" opacity="0.89" /><circle cx="395.90" cy="168.71" r="1.10" fill="#3b82f6" opacity="0.45" /><circle cx="379.87" cy="360.81" r="1.85" fill="#dc2626" opacity="0.75" /><circle cx="387.41" cy="354.31" r="2.02" fill="#dc2626" opacity="0.78" /><circle cx="348.33" cy="384.84" r="1.71" fill="#dc2626" opacity="0.66" /><circle cx="375.68" cy="304.52" r="2.42" fill="#10b981" opacity="0.98" /><circle cx="379.44" cy="373.11" r="1.82" fill="#dc2626" opacity="0.71" /><circle cx="356.84" cy="357.51" r="1.87" fill="#dc2626" opacity="0.76" /><circle cx="480.78" cy="270.02" r="0.95" fill="#10b981" opacity="0.46" /><circle cx="376.21" cy="409.42" r="1.40" fill="#dc2626" opacity="0.56" /><circle cx="544.72" cy="346.19" r="0.61" fill="#10b981" opacity="0.26" /><circle cx="374.30" cy="279.27" r="2.00" fill="#10b981" opacity="0.91" /><circle cx="381.09" cy="323.28" r="2.18" fill="#10b981" opacity="0.90" /><circle cx="361.24" cy="313.95" r="2.25" fill="#10b981" opacity="0.92" /><circle cx="391.66" cy="312.31" r="2.42" fill="#10b981" opacity="0.92" /><circle cx="275.36" cy="291.57" r="1.12" fill="#10b981" opacity="0.53" /><circle cx="362.60" cy="364.63" r="1.82" fill="#dc2626" opacity="0.73" /><circle cx="356.56" cy="310.69" r="2.36" fill="#10b981" opacity="0.92" /><circle cx="374.19" cy="353.48" r="1.92" fill="#dc2626" opacity="0.78" /><circle cx="394.45" cy="321.51" r="2.19" fill="#10b981" opacity="0.88" /><circle cx="363.64" cy="325.73" r="2.19" fill="#10b981" opacity="0.89" /><circle cx="324.22" cy="206.05" r="1.12" fill="#3b82f6" opacity="0.51" /><circle cx="356.56" cy="185.32" r="1.27" fill="#3b82f6" opacity="0.52" /><circle cx="343.01" cy="355.00" r="1.96" fill="#dc2626" opacity="0.75" /><circle cx="438.48" cy="368.37" r="1.22" fill="#dc2626" opacity="0.57" /><circle cx="413.62" cy="294.95" r="1.83" fill="#10b981" opacity="0.82" /><circle cx="343.91" cy="386.54" r="1.40" fill="#dc2626" opacity="0.60" /><circle cx="489.78" cy="340.74" r="0.97" fill="#10b981" opacity="0.44" /><circle cx="313.99" cy="347.40" r="1.57" fill="#dc2626" opacity="0.67" /><circle cx="252.49" cy="300.37" r="0.91" fill="#10b981" opacity="0.42" /><circle cx="390.22" cy="339.45" r="2.04" fill="#10b981" opacity="0.83" /><circle cx="375.76" cy="300.35" r="2.49" fill="#10b981" opacity="1.00" /><circle cx="474.55" cy="382.32" r="0.91" fill="#dc2626" opacity="0.41" /><circle cx="362.71" cy="354.00" r="1.91" fill="#dc2626" opacity="0.78" /><circle cx="439.07" cy="351.95" r="1.22" fill="#dc2626" opacity="0.60" /><circle cx="387.01" cy="338.92" r="2.16" fill="#10b981" opacity="0.84" /><circle cx="392.41" cy="163.60" r="0.92" fill="#3b82f6" opacity="0.40" /><circle cx="388.21" cy="337.65" r="2.24" fill="#10b981" opacity="0.85" /><circle cx="450.15" cy="194.47" r="1.04" fill="#3b82f6" opacity="0.45" /><circle cx="235.25" cy="319.75" r="0.85" fill="#10b981" opacity="0.38" /><circle cx="349.02" cy="164.62" r="1.03" fill="#3b82f6" opacity="0.43" /><circle cx="371.12" cy="380.24" r="1.68" fill="#dc2626" opacity="0.68" /><circle cx="371.97" cy="346.20" r="2.17" fill="#10b981" opacity="0.82" /><circle cx="329.50" cy="392.13" r="1.21" fill="#dc2626" opacity="0.54" /><circle cx="368.39" cy="307.78" r="2.51" fill="#10b981" opacity="0.96" /><circle cx="441.14" cy="207.53" r="1.27" fill="#3b82f6" opacity="0.53" /><circle cx="310.93" cy="346.87" r="1.42" fill="#dc2626" opacity="0.64" /><circle cx="387.54" cy="196.57" r="1.23" fill="#3b82f6" opacity="0.54" /><circle cx="440.48" cy="244.68" r="1.38" fill="#3b82f6" opacity="0.62" /><circle cx="392.72" cy="291.00" r="2.01" fill="#10b981" opacity="0.91" /><circle cx="377.97" cy="299.71" r="2.51" fill="#10b981" opacity="0.99" /><circle cx="334.54" cy="374.57" r="1.42" fill="#dc2626" opacity="0.63" /><circle cx="418.22" cy="321.27" r="1.54" fill="#10b981" opacity="0.76" /><circle cx="372.23" cy="369.76" r="1.62" fill="#dc2626" opacity="0.70" /><circle cx="413.34" cy="359.87" r="1.88" fill="#dc2626" opacity="0.73" /><circle cx="324.86" cy="363.82" r="1.56" fill="#dc2626" opacity="0.66" /><circle cx="365.92" cy="319.76" r="2.24" fill="#10b981" opacity="0.91" /><circle cx="287.13" cy="336.17" r="1.27" fill="#10b981" opacity="0.57" /><circle cx="394.27" cy="310.42" r="2.35" fill="#10b981" opacity="0.91" /><circle cx="374.99" cy="353.87" r="2.04" fill="#dc2626" opacity="0.79" /><circle cx="379.00" cy="321.36" r="2.40" fill="#10b981" opacity="0.92" /><circle cx="371.77" cy="304.77" r="2.51" fill="#10b981" opacity="0.98" /><circle cx="368.07" cy="320.95" r="2.38" fill="#10b981" opacity="0.92" /><circle cx="375.73" cy="348.97" r="2.00" fill="#10b981" opacity="0.80" /><circle cx="505.76" cy="224.63" r="0.70" fill="#3b82f6" opacity="0.32" /><circle cx="351.96" cy="273.02" r="1.75" fill="#10b981" opacity="0.83" /><circle cx="394.58" cy="365.85" r="1.86" fill="#dc2626" opacity="0.73" /><circle cx="319.55" cy="210.86" r="1.34" fill="#3b82f6" opacity="0.56" /><circle cx="401.18" cy="306.75" r="2.30" fill="#10b981" opacity="0.89" /><circle cx="394.86" cy="295.07" r="1.84" fill="#10b981" opacity="0.90" /><circle cx="375.42" cy="218.36" r="1.25" fill="#3b82f6" opacity="0.61" /><circle cx="369.32" cy="298.98" r="2.46" fill="#10b981" opacity="0.98" /><circle cx="368.86" cy="342.19" r="2.02" fill="#10b981" opacity="0.83" /><circle cx="382.28" cy="322.42" r="2.21" fill="#10b981" opacity="0.90" /><circle cx="319.31" cy="275.63" r="1.63" fill="#10b981" opacity="0.73" /><circle cx="377.73" cy="322.62" r="2.43" fill="#10b981" opacity="0.91" /><circle cx="394.18" cy="187.12" r="1.17" fill="#3b82f6" opacity="0.50" /><circle cx="358.64" cy="342.56" r="2.13" fill="#10b981" opacity="0.82" /><circle cx="369.48" cy="347.08" r="1.94" fill="#10b981" opacity="0.80" /><circle cx="326.32" cy="239.75" r="1.55" fill="#3b82f6" opacity="0.67" /><circle cx="331.90" cy="209.71" r="1.23" fill="#3b82f6" opacity="0.55" /><circle cx="395.67" cy="324.70" r="2.15" fill="#10b981" opacity="0.87" /><circle cx="381.52" cy="335.22" r="2.08" fill="#10b981" opacity="0.85" /><circle cx="377.51" cy="342.02" r="2.16" fill="#10b981" opacity="0.84" /><circle cx="376.50" cy="303.88" r="2.43" fill="#10b981" opacity="0.98" /><circle cx="355.98" cy="382.04" r="1.39" fill="#dc2626" opacity="0.62" /><circle cx="367.51" cy="368.09" r="1.70" fill="#dc2626" opacity="0.71" /><circle cx="430.86" cy="258.77" r="1.44" fill="#10b981" opacity="0.67" /><circle cx="387.47" cy="163.05" r="0.94" fill="#3b82f6" opacity="0.41" /><circle cx="335.47" cy="327.26" r="2.04" fill="#10b981" opacity="0.81" /><circle cx="371.54" cy="303.98" r="2.42" fill="#10b981" opacity="0.98" /><circle cx="375.19" cy="365.89" r="1.84" fill="#dc2626" opacity="0.74" /><circle cx="376.49" cy="362.78" r="1.85" fill="#dc2626" opacity="0.75" /><circle cx="364.53" cy="303.33" r="1.89" fill="#10b981" opacity="0.95" /><circle cx="492.15" cy="301.15" r="1.05" fill="#10b981" opacity="0.47" /><circle cx="345.26" cy="325.13" r="2.08" fill="#10b981" opacity="0.84" /><circle cx="373.06" cy="305.66" r="2.08" fill="#10b981" opacity="0.97" /><circle cx="375.15" cy="410.76" r="1.40" fill="#dc2626" opacity="0.56" /><circle cx="376.92" cy="397.88" r="1.50" fill="#dc2626" opacity="0.61" /><circle cx="365.90" cy="306.87" r="2.35" fill="#10b981" opacity="0.95" /><circle cx="338.61" cy="347.14" r="1.62" fill="#dc2626" opacity="0.73" /><circle cx="393.16" cy="225.42" r="1.62" fill="#3b82f6" opacity="0.68" /><circle cx="376.24" cy="349.86" r="1.97" fill="#dc2626" opacity="0.80" /><circle cx="373.67" cy="369.04" r="1.96" fill="#dc2626" opacity="0.74" /><circle cx="362.45" cy="356.57" r="1.96" fill="#dc2626" opacity="0.77" /><circle cx="356.87" cy="306.06" r="2.37" fill="#10b981" opacity="0.93" /><circle cx="384.78" cy="363.67" r="1.66" fill="#dc2626" opacity="0.72" /><circle cx="377.64" cy="333.64" r="2.14" fill="#10b981" opacity="0.86" /><circle cx="339.25" cy="202.76" r="1.46" fill="#3b82f6" opacity="0.58" /><circle cx="491.16" cy="238.83" r="0.93" fill="#3b82f6" opacity="0.42" /><circle cx="375.82" cy="407.04" r="1.47" fill="#dc2626" opacity="0.58" /><circle cx="401.98" cy="384.04" r="1.65" fill="#dc2626" opacity="0.65" /><circle cx="367.48" cy="372.41" r="1.93" fill="#dc2626" opacity="0.73" /><circle cx="387.72" cy="328.65" r="2.14" fill="#10b981" opacity="0.87" /><circle cx="378.62" cy="329.73" r="2.16" fill="#10b981" opacity="0.88" /><circle cx="405.16" cy="342.70" r="2.12" fill="#10b981" opacity="0.80" /><circle cx="362.01" cy="320.51" r="2.21" fill="#10b981" opacity="0.90" /><circle cx="367.77" cy="299.34" r="2.44" fill="#10b981" opacity="0.97" /><circle cx="363.52" cy="348.32" r="1.95" fill="#10b981" opacity="0.80" /><circle cx="302.52" cy="337.26" r="1.33" fill="#10b981" opacity="0.62" /><circle cx="386.80" cy="318.12" r="2.39" fill="#10b981" opacity="0.92" /><circle cx="385.20" cy="300.95" r="2.46" fill="#10b981" opacity="0.96" /><circle cx="363.33" cy="416.13" r="1.26" fill="#dc2626" opacity="0.52" /><circle cx="361.55" cy="368.58" r="1.88" fill="#dc2626" opacity="0.73" /><circle cx="343.61" cy="306.16" r="2.21" fill="#10b981" opacity="0.87" /><circle cx="492.81" cy="329.87" r="1.01" fill="#10b981" opacity="0.45" /><circle cx="419.15" cy="260.89" r="1.57" fill="#10b981" opacity="0.73" /><circle cx="375.27" cy="358.89" r="1.91" fill="#dc2626" opacity="0.76" /><circle cx="384.88" cy="319.99" r="2.41" fill="#10b981" opacity="0.92" /><circle cx="379.46" cy="347.66" r="2.08" fill="#10b981" opacity="0.81" /><circle cx="378.45" cy="406.14" r="1.44" fill="#dc2626" opacity="0.58" /><circle cx="395.67" cy="337.54" r="2.01" fill="#10b981" opacity="0.82" /><circle cx="372.27" cy="354.92" r="1.91" fill="#dc2626" opacity="0.78" /><circle cx="408.43" cy="375.24" r="1.53" fill="#dc2626" opacity="0.65" /><circle cx="374.25" cy="393.01" r="1.55" fill="#dc2626" opacity="0.62" /><circle cx="388.74" cy="363.06" r="1.60" fill="#dc2626" opacity="0.71" /><circle cx="308.99" cy="384.44" r="1.25" fill="#dc2626" opacity="0.54" /><circle cx="378.53" cy="359.51" r="1.84" fill="#dc2626" opacity="0.76" /><circle cx="328.34" cy="356.88" r="1.54" fill="#dc2626" opacity="0.68" /><circle cx="354.17" cy="340.49" r="2.09" fill="#10b981" opacity="0.82" /><circle cx="374.74" cy="299.49" r="2.50" fill="#10b981" opacity="1.00" /><circle cx="474.45" cy="249.92" r="1.10" fill="#3b82f6" opacity="0.50" /><circle cx="366.93" cy="382.19" r="1.73" fill="#dc2626" opacity="0.68" /><circle cx="348.75" cy="368.23" r="1.85" fill="#dc2626" opacity="0.72" /><circle cx="375.07" cy="393.87" r="1.55" fill="#dc2626" opacity="0.62" /><circle cx="382.74" cy="391.41" r="1.60" fill="#dc2626" opacity="0.64" /><circle cx="444.20" cy="353.66" r="1.28" fill="#dc2626" opacity="0.59" /><circle cx="358.37" cy="338.32" r="2.21" fill="#10b981" opacity="0.84" /><circle cx="337.09" cy="345.08" r="1.68" fill="#10b981" opacity="0.74" /><circle cx="388.85" cy="319.01" r="2.38" fill="#10b981" opacity="0.91" /><circle cx="314.58" cy="355.77" r="1.40" fill="#dc2626" opacity="0.63" /><circle cx="396.34" cy="299.76" r="2.32" fill="#10b981" opacity="0.92" /><circle cx="337.64" cy="318.82" r="2.15" fill="#10b981" opacity="0.84" /><circle cx="456.24" cy="350.93" r="1.24" fill="#dc2626" opacity="0.56" /><circle cx="353.12" cy="398.10" r="1.24" fill="#dc2626" opacity="0.55" /><circle cx="251.29" cy="302.85" r="0.93" fill="#10b981" opacity="0.43" /><circle cx="376.16" cy="299.45" r="2.50" fill="#10b981" opacity="0.99" /><circle cx="408.65" cy="255.81" r="1.66" fill="#10b981" opacity="0.75" /><circle cx="490.44" cy="247.22" r="1.16" fill="#3b82f6" opacity="0.48" /><circle cx="358.36" cy="309.99" r="2.27" fill="#10b981" opacity="0.92" /><circle cx="378.04" cy="299.21" r="2.48" fill="#10b981" opacity="0.99" /><circle cx="416.77" cy="329.38" r="1.63" fill="#10b981" opacity="0.76" /><circle cx="366.06" cy="299.11" r="2.42" fill="#10b981" opacity="0.96" /><circle cx="278.02" cy="317.29" r="1.34" fill="#10b981" opacity="0.58" /><circle cx="400.16" cy="361.27" r="1.46" fill="#dc2626" opacity="0.69" /><circle cx="355.56" cy="196.28" r="1.33" fill="#3b82f6" opacity="0.56" /><circle cx="271.91" cy="280.06" r="1.33" fill="#10b981" opacity="0.56" /><circle cx="355.51" cy="314.01" r="2.34" fill="#10b981" opacity="0.91" /><circle cx="346.41" cy="371.96" r="1.77" fill="#dc2626" opacity="0.70" /><circle cx="395.30" cy="177.28" r="1.21" fill="#3b82f6" opacity="0.49" /><circle cx="398.93" cy="312.48" r="2.31" fill="#10b981" opacity="0.90" /><circle cx="437.10" cy="362.28" r="1.20" fill="#dc2626" opacity="0.58" /><circle cx="391.88" cy="241.49" r="1.67" fill="#3b82f6" opacity="0.73" /><circle cx="512.60" cy="339.38" r="0.75" fill="#10b981" opacity="0.34" /><circle cx="369.61" cy="388.54" r="1.60" fill="#dc2626" opacity="0.64" /><circle cx="327.01" cy="371.61" r="1.22" fill="#dc2626" opacity="0.59" /><circle cx="310.72" cy="231.34" r="1.50" fill="#3b82f6" opacity="0.61" /><circle cx="397.72" cy="203.89" r="1.39" fill="#3b82f6" opacity="0.58" /><circle cx="338.09" cy="223.28" r="1.23" fill="#3b82f6" opacity="0.59" /><circle cx="362.78" cy="372.27" r="1.71" fill="#dc2626" opacity="0.70" /><circle cx="305.63" cy="358.68" r="1.28" fill="#dc2626" opacity="0.58" /><circle cx="382.38" cy="384.29" r="1.68" fill="#dc2626" opacity="0.67" /><circle cx="382.04" cy="358.13" r="1.90" fill="#dc2626" opacity="0.76" /><circle cx="387.84" cy="358.53" r="1.62" fill="#dc2626" opacity="0.73" /><circle cx="223.06" cy="236.48" r="0.60" fill="#3b82f6" opacity="0.27" /><circle cx="371.59" cy="175.57" r="1.23" fill="#3b82f6" opacity="0.50" /><circle cx="371.73" cy="350.06" r="1.99" fill="#dc2626" opacity="0.80" /><circle cx="404.83" cy="152.92" r="0.88" fill="#3b82f6" opacity="0.37" /><circle cx="446.05" cy="321.98" r="1.42" fill="#10b981" opacity="0.66" /><circle cx="343.11" cy="326.06" r="2.11" fill="#10b981" opacity="0.84" /><circle cx="379.05" cy="364.10" r="2.01" fill="#dc2626" opacity="0.76" /><circle cx="353.33" cy="217.21" r="1.57" fill="#3b82f6" opacity="0.65" /><circle cx="379.15" cy="148.04" r="0.94" fill="#3b82f6" opacity="0.38" /><circle cx="406.13" cy="370.61" r="1.86" fill="#dc2626" opacity="0.71" /><circle cx="394.07" cy="414.16" r="1.30" fill="#dc2626" opacity="0.53" /><circle cx="381.15" cy="331.19" r="2.16" fill="#10b981" opacity="0.87" /><circle cx="341.37" cy="322.06" r="2.19" fill="#10b981" opacity="0.85" /><circle cx="313.55" cy="212.62" r="1.36" fill="#3b82f6" opacity="0.56" /><circle cx="378.09" cy="393.30" r="1.55" fill="#dc2626" opacity="0.62" /><circle cx="279.52" cy="345.49" r="1.26" fill="#10b981" opacity="0.54" /><circle cx="386.21" cy="315.14" r="2.26" fill="#10b981" opacity="0.92" /><circle cx="412.54" cy="329.51" r="2.09" fill="#10b981" opacity="0.81" /><circle cx="437.49" cy="248.98" r="1.52" fill="#3b82f6" opacity="0.65" /><circle cx="372.15" cy="300.82" r="2.46" fill="#10b981" opacity="0.99" /><circle cx="358.44" cy="378.16" r="1.79" fill="#dc2626" opacity="0.69" /><circle cx="382.87" cy="299.75" r="2.46" fill="#10b981" opacity="0.97" /><circle cx="371.17" cy="334.38" r="2.11" fill="#10b981" opacity="0.86" /><circle cx="375.72" cy="367.37" r="1.80" fill="#dc2626" opacity="0.73" /><circle cx="479.23" cy="234.42" r="0.94" fill="#3b82f6" opacity="0.43" /><circle cx="269.63" cy="252.71" r="1.05" fill="#3b82f6" opacity="0.48" /><circle cx="319.88" cy="357.45" r="1.28" fill="#dc2626" opacity="0.62" /><circle cx="388.61" cy="311.18" r="2.27" fill="#10b981" opacity="0.93" /><circle cx="349.91" cy="389.48" r="1.36" fill="#dc2626" opacity="0.59" /><circle cx="359.03" cy="191.01" r="1.26" fill="#3b82f6" opacity="0.53" /><circle cx="369.46" cy="178.54" r="1.06" fill="#3b82f6" opacity="0.46" /><circle cx="359.30" cy="302.78" r="2.38" fill="#10b981" opacity="0.94" /><circle cx="380.25" cy="302.25" r="2.43" fill="#10b981" opacity="0.98" /><circle cx="215.04" cy="209.40" r="0.63" fill="#3b82f6" opacity="0.25" /><circle cx="386.87" cy="225.68" r="1.55" fill="#3b82f6" opacity="0.67" /><circle cx="401.38" cy="362.16" r="1.44" fill="#dc2626" opacity="0.68" /><circle cx="378.29" cy="394.33" r="1.62" fill="#dc2626" opacity="0.63" /><circle cx="308.97" cy="358.92" r="1.26" fill="#dc2626" opacity="0.59" /><circle cx="376.51" cy="398.83" r="1.50" fill="#dc2626" opacity="0.60" /><circle cx="374.38" cy="349.87" r="1.98" fill="#dc2626" opacity="0.80" /><circle cx="415.29" cy="360.78" r="1.85" fill="#dc2626" opacity="0.72" /><circle cx="357.10" cy="260.24" r="1.65" fill="#10b981" opacity="0.79" /><circle cx="366.54" cy="361.14" r="1.85" fill="#dc2626" opacity="0.75" /><circle cx="336.60" cy="337.25" r="1.58" fill="#10b981" opacity="0.75" /><circle cx="329.44" cy="320.44" r="2.03" fill="#10b981" opacity="0.80" /><circle cx="398.10" cy="410.65" r="1.35" fill="#dc2626" opacity="0.54" /><circle cx="349.44" cy="355.39" r="1.54" fill="#dc2626" opacity="0.72" /><text x="780" y="40" class="text-main" font-size="22" font-weight="800">Neuron</text><text x="862" y="40" font-family="'Inter', sans-serif" font-size="22" font-weight="800" fill="#10b981">FS V2</text><text x="780" y="60" class="text-mono" fill="#94a3b8">Autopilot Nerve Center</text><line x1="750" y1="80" x2="1200" y2="80" class="border" /><circle cx="790" cy="115" r="5" fill="#10b981" /><circle cx="790" cy="115" r="5" fill="none" stroke="#10b981" stroke-width="2" class="pulse" /><text x="810" y="120" class="text-main" font-size="14" font-weight="600">System Listening &amp; Ready</text><line x1="750" y1="150" x2="1200" y2="150" class="border" /><text x="780" y="190" class="text-mono">[SYSTEM] Booting Strangler Fig CLI Router...</text><text x="780" y="215" class="text-mono">[SYSTEM] Neural filesystem mounted successfully.</text><text x="780" y="240" class="text-mono">[12:43:10] [WARN] [EVOLVE:proceed] tag detected.</text><text x="780" y="265" class="text-mono" fill="#10b981">[12:43:10] [INFO] CDP Injection Cooldown: 60s</text><text x="780" y="290" class="text-mono blink" font-weight="700">_</text><line x1="750" y1="480" x2="1200" y2="480" class="border" /><text x="780" y="520" font-family="'JetBrains Mono', monospace" font-size="10" fill="#94a3b8" letter-spacing="1">ACTIVE NEURONS</text><text x="780" y="550" class="text-main" font-size="24" font-weight="800">420</text><text x="1000" y="520" font-family="'JetBrains Mono', monospace" font-size="10" fill="#94a3b8" letter-spacing="1">TOTAL ACTIVATION</text><text x="1000" y="550" class="text-main" font-size="24" font-weight="800">9121</text></svg>