<svg xmlns="http://www.w3.org/2000/svg" viewBox="0 0 1200 600" width="1200" height="600">
	<defs>
		<style>
			@import url('https://fonts.googleapis.com/css2?family=Inter:wght@400;800&amp;family=JetBrains+Mono:wght@400;700&amp;display=swap');
			.bg { fill: #030305; }
			.border { stroke: rgba(255,255,255,0.08); stroke-width: 1; }
			.accent { fill: #10b981; }
			.text-main { fill: #f8fafc; font-family: 'Inter', sans-serif; }
			.text-mono { fill: #a1a1aa; font-family: 'JetBrains Mono', monospace; font-size: 12px; }
			.pulse { animation: pulseAnim 2s infinite; }
			@keyframes pulseAnim {
				0% { r: 5; opacity: 1; }
				50% { r: 15; opacity: 0; }
				100% { r: 5; opacity: 0; }
			}
			.blink { animation: blinkAnim 1s step-end infinite; }
			@keyframes blinkAnim { 50% { opacity: 0; } }
		</style>
		<radialGradient id="hologram" cx="50%" cy="50%" r="50%">
			<stop offset="0%" stop-color="#0a0a14" />
			<stop offset="100%" stop-color="#030305" />
		</radialGradient>
	</defs>
	<rect width="1200" height="600" fill="url(#hologram)" /><rect x="750" y="0" width="450" height="600" fill="rgba(15, 20, 30, 0.6)" class="border" /><line x1="750" y1="0" x2="750" y2="600" class="border" /><circle cx="445.53" cy="256.82" r="1.34" fill="#10b981" opacity="0.62" /><circle cx="380.38" cy="304.88" r="2.49" fill="#10b981" opacity="0.97" /><circle cx="462.53" cy="242.50" r="1.28" fill="#3b82f6" opacity="0.55" /><circle cx="366.40" cy="229.06" r="1.51" fill="#3b82f6" opacity="0.68" /><circle cx="369.13" cy="303.04" r="2.41" fill="#10b981" opacity="0.97" /><circle cx="357.16" cy="343.06" r="1.97" fill="#10b981" opacity="0.81" /><circle cx="332.36" cy="328.47" r="2.06" fill="#10b981" opacity="0.80" /><circle cx="375.71" cy="358.63" r="1.93" fill="#dc2626" opacity="0.77" /><circle cx="366.95" cy="161.79" r="0.91" fill="#3b82f6" opacity="0.40" /><circle cx="491.07" cy="242.41" r="0.83" fill="#3b82f6" opacity="0.39" /><circle cx="395.93" cy="395.38" r="1.59" fill="#dc2626" opacity="0.62" /><circle cx="305.58" cy="218.93" r="1.35" fill="#3b82f6" opacity="0.56" /><circle cx="346.96" cy="206.69" r="1.36" fill="#3b82f6" opacity="0.58" /><circle cx="305.01" cy="336.81" r="1.47" fill="#10b981" opacity="0.65" /><circle cx="373.45" cy="311.88" r="2.32" fill="#10b981" opacity="0.95" /><circle cx="357.52" cy="371.31" r="1.68" fill="#dc2626" opacity="0.70" /><circle cx="359.91" cy="189.08" r="1.18" fill="#3b82f6" opacity="0.51" /><circle cx="402.93" cy="338.41" r="1.99" fill="#10b981" opacity="0.81" /><circle cx="483.24" cy="359.91" r="1.17" fill="#dc2626" opacity="0.49" /><circle cx="350.55" cy="321.03" r="2.29" fill="#10b981" opacity="0.88" /><circle cx="391.65" cy="342.88" r="2.20" fill="#10b981" opacity="0.83" /><circle cx="406.09" cy="322.87" r="2.17" fill="#10b981" opacity="0.85" /><circle cx="350.73" cy="393.42" r="1.51" fill="#dc2626" opacity="0.61" /><circle cx="288.80" cy="241.45" r="1.27" fill="#3b82f6" opacity="0.55" /><circle cx="277.26" cy="219.71" r="1.03" fill="#3b82f6" opacity="0.45" /><circle cx="381.08" cy="340.83" r="2.07" fill="#10b981" opacity="0.83" /><circle cx="376.15" cy="353.55" r="2.10" fill="#dc2626" opacity="0.80" /><circle cx="369.62" cy="302.74" r="2.42" fill="#10b981" opacity="0.98" /><circle cx="389.11" cy="300.92" r="2.38" fill="#10b981" opacity="0.94" /><circle cx="384.00" cy="193.12" r="1.42" fill="#3b82f6" opacity="0.57" /><circle cx="265.31" cy="391.04" r="0.80" fill="#dc2626" opacity="0.36" /><circle cx="438.94" cy="214.06" r="1.20" fill="#3b82f6" opacity="0.53" /><circle cx="357.71" cy="387.36" r="1.50" fill="#dc2626" opacity="0.63" /><circle cx="424.55" cy="362.64" r="1.36" fill="#dc2626" opacity="0.63" /><circle cx="389.54" cy="302.47" r="2.40" fill="#10b981" opacity="0.94" /><circle cx="371.00" cy="335.46" r="2.08" fill="#10b981" opacity="0.85" /><circle cx="375.08" cy="396.07" r="1.52" fill="#dc2626" opacity="0.61" /><circle cx="369.49" cy="316.68" r="2.25" fill="#10b981" opacity="0.93" /><circle cx="507.31" cy="231.35" r="0.90" fill="#3b82f6" opacity="0.38" /><circle cx="372.56" cy="310.98" r="2.49" fill="#10b981" opacity="0.96" /><circle cx="379.31" cy="204.04" r="1.48" fill="#3b82f6" opacity="0.61" /><circle cx="351.60" cy="373.07" r="1.82" fill="#dc2626" opacity="0.70" /><circle cx="356.30" cy="300.22" r="2.32" fill="#10b981" opacity="0.93" /><circle cx="374.86" cy="300.58" r="2.49" fill="#10b981" opacity="1.00" /><circle cx="367.41" cy="299.39" r="2.46" fill="#10b981" opacity="0.97" /><circle cx="361.31" cy="326.86" r="2.18" fill="#10b981" opacity="0.88" /><circle cx="374.85" cy="368.54" r="1.82" fill="#dc2626" opacity="0.73" /><circle cx="412.04" cy="296.86" r="1.75" fill="#10b981" opacity="0.82" /><circle cx="383.00" cy="368.26" r="1.96" fill="#dc2626" opacity="0.74" /><circle cx="378.34" cy="355.37" r="1.93" fill="#dc2626" opacity="0.78" /><circle cx="445.76" cy="238.09" r="1.33" fill="#3b82f6" opacity="0.59" /><circle cx="256.64" cy="307.16" r="0.98" fill="#10b981" opacity="0.45" /><circle cx="341.66" cy="401.36" r="1.23" fill="#dc2626" opacity="0.53" /><circle cx="450.77" cy="370.70" r="1.42" fill="#dc2626" opacity="0.58" /><circle cx="373.04" cy="299.22" r="2.50" fill="#10b981" opacity="0.99" /><circle cx="365.89" cy="306.14" r="2.37" fill="#10b981" opacity="0.96" /><circle cx="477.51" cy="230.54" r="1.22" fill="#3b82f6" opacity="0.50" /><circle cx="421.23" cy="208.67" r="1.16" fill="#3b82f6" opacity="0.53" /><circle cx="345.65" cy="310.64" r="2.24" fill="#10b981" opacity="0.88" /><circle cx="288.38" cy="341.59" r="1.28" fill="#10b981" opacity="0.57" /><circle cx="373.06" cy="347.37" r="2.02" fill="#10b981" opacity="0.81" /><circle cx="375.12" cy="300.04" r="2.50" fill="#10b981" opacity="1.00" /><circle cx="265.08" cy="331.51" r="1.11" fill="#10b981" opacity="0.49" /><circle cx="479.81" cy="373.29" r="0.99" fill="#dc2626" opacity="0.44" /><circle cx="320.70" cy="363.01" r="1.37" fill="#dc2626" opacity="0.62" /><circle cx="380.16" cy="359.60" r="1.89" fill="#dc2626" opacity="0.76" /><circle cx="374.10" cy="360.76" r="1.57" fill="#dc2626" opacity="0.72" /><circle cx="403.20" cy="269.54" r="1.66" fill="#10b981" opacity="0.80" /><circle cx="403.59" cy="188.94" r="1.27" fill="#3b82f6" opacity="0.52" /><circle cx="439.23" cy="294.44" r="1.43" fill="#10b981" opacity="0.69" /><circle cx="386.53" cy="314.84" r="2.26" fill="#10b981" opacity="0.92" /><circle cx="371.72" cy="368.74" r="1.84" fill="#dc2626" opacity="0.73" /><circle cx="439.37" cy="334.30" r="1.35" fill="#10b981" opacity="0.65" /><circle cx="504.05" cy="227.61" r="0.73" fill="#3b82f6" opacity="0.33" /><circle cx="417.83" cy="231.94" r="1.31" fill="#3b82f6" opacity="0.62" /><circle cx="371.58" cy="318.12" r="2.26" fill="#10b981" opacity="0.92" /><circle cx="500.29" cy="238.46" r="0.94" fill="#3b82f6" opacity="0.40" /><circle cx="443.59" cy="265.21" r="1.27" fill="#10b981" opacity="0.62" /><circle cx="377.24" cy="300.85" r="2.47" fill="#10b981" opacity="0.99" /><circle cx="365.53" cy="196.72" r="1.25" fill="#3b82f6" opacity="0.55" /><circle cx="261.23" cy="187.47" r="0.78" fill="#3b82f6" opacity="0.33" /><circle cx="429.76" cy="310.41" r="1.53" fill="#10b981" opacity="0.73" /><circle cx="315.36" cy="224.13" r="1.17" fill="#3b82f6" opacity="0.55" /><circle cx="284.32" cy="207.91" r="1.20" fill="#3b82f6" opacity="0.48" /><circle cx="376.15" cy="299.24" r="2.53" fill="#10b981" opacity="0.99" /><circle cx="358.77" cy="314.04" r="2.25" fill="#10b981" opacity="0.91" /><circle cx="360.04" cy="161.13" r="1.05" fill="#3b82f6" opacity="0.43" /><circle cx="379.09" cy="380.66" r="1.68" fill="#dc2626" opacity="0.68" /><circle cx="331.07" cy="264.98" r="1.66" fill="#10b981" opacity="0.75" /><circle cx="375.11" cy="190.52" r="1.40" fill="#3b82f6" opacity="0.56" /><circle cx="386.92" cy="330.46" r="2.09" fill="#10b981" opacity="0.86" /><circle cx="411.47" cy="335.31" r="2.14" fill="#10b981" opacity="0.81" /><circle cx="328.83" cy="270.89" r="1.55" fill="#10b981" opacity="0.74" /><circle cx="361.82" cy="352.28" r="2.01" fill="#dc2626" opacity="0.79" /><circle cx="367.72" cy="305.80" r="2.50" fill="#10b981" opacity="0.96" /><circle cx="426.12" cy="322.73" r="2.00" fill="#10b981" opacity="0.78" /><circle cx="401.74" cy="417.41" r="1.21" fill="#dc2626" opacity="0.50" /><circle cx="385.25" cy="352.70" r="2.01" fill="#dc2626" opacity="0.79" /><circle cx="372.93" cy="299.62" r="2.48" fill="#10b981" opacity="0.99" /><circle cx="415.88" cy="373.83" r="1.73" fill="#dc2626" opacity="0.67" /><circle cx="219.89" cy="384.08" r="0.61" fill="#dc2626" opacity="0.26" /><circle cx="359.33" cy="386.33" r="1.69" fill="#dc2626" opacity="0.66" /><circle cx="361.61" cy="345.05" r="2.02" fill="#10b981" opacity="0.81" /><circle cx="374.44" cy="359.38" r="1.91" fill="#dc2626" opacity="0.76" /><circle cx="199.74" cy="299.22" r="0.69" fill="#10b981" opacity="0.28" /><circle cx="373.61" cy="338.28" r="2.08" fill="#10b981" opacity="0.84" /><circle cx="391.95" cy="337.27" r="2.05" fill="#10b981" opacity="0.83" /><circle cx="372.84" cy="311.57" r="2.52" fill="#10b981" opacity="0.96" /><circle cx="386.92" cy="251.63" r="1.53" fill="#3b82f6" opacity="0.75" /><circle cx="372.66" cy="301.83" r="2.45" fill="#10b981" opacity="0.99" /><circle cx="389.02" cy="300.10" r="2.37" fill="#10b981" opacity="0.94" /><circle cx="381.03" cy="373.86" r="1.83" fill="#dc2626" opacity="0.71" /><circle cx="339.73" cy="326.18" r="2.17" fill="#10b981" opacity="0.83" /><circle cx="385.10" cy="146.50" r="0.92" fill="#3b82f6" opacity="0.37" /><circle cx="369.78" cy="188.42" r="1.20" fill="#3b82f6" opacity="0.52" /><circle cx="379.20" cy="358.21" r="1.90" fill="#dc2626" opacity="0.76" /><circle cx="429.16" cy="170.25" r="0.91" fill="#3b82f6" opacity="0.39" /><circle cx="388.68" cy="301.92" r="2.40" fill="#10b981" opacity="0.95" /><circle cx="351.11" cy="344.52" r="2.10" fill="#10b981" opacity="0.81" /><circle cx="375.18" cy="341.77" r="2.04" fill="#10b981" opacity="0.83" /><circle cx="387.95" cy="314.09" r="2.26" fill="#10b981" opacity="0.92" /><circle cx="405.19" cy="377.22" r="1.63" fill="#dc2626" opacity="0.66" /><circle cx="361.05" cy="354.48" r="2.02" fill="#dc2626" opacity="0.78" /><circle cx="361.95" cy="341.19" r="2.06" fill="#10b981" opacity="0.83" /><circle cx="373.29" cy="325.36" r="2.20" fill="#10b981" opacity="0.90" /><circle cx="370.69" cy="301.85" r="2.44" fill="#10b981" opacity="0.98" /><circle cx="500.02" cy="327.77" r="1.00" fill="#10b981" opacity="0.44" /><circle cx="377.35" cy="299.05" r="2.50" fill="#10b981" opacity="0.99" /><circle cx="350.57" cy="331.55" r="2.06" fill="#10b981" opacity="0.84" /><circle cx="361.08" cy="301.15" r="2.40" fill="#10b981" opacity="0.95" /><circle cx="478.63" cy="299.04" r="1.06" fill="#10b981" opacity="0.51" /><circle cx="378.81" cy="307.47" r="2.37" fill="#10b981" opacity="0.97" /><circle cx="361.41" cy="332.05" r="2.07" fill="#10b981" opacity="0.86" /><circle cx="401.57" cy="317.89" r="2.31" fill="#10b981" opacity="0.88" /><circle cx="362.23" cy="336.03" r="2.07" fill="#10b981" opacity="0.84" /><circle cx="385.04" cy="326.79" r="2.18" fill="#10b981" opacity="0.88" /><circle cx="307.26" cy="370.07" r="1.19" fill="#dc2626" opacity="0.55" /><circle cx="371.39" cy="299.17" r="2.48" fill="#10b981" opacity="0.99" /><circle cx="379.37" cy="341.01" r="1.75" fill="#10b981" opacity="0.81" /><circle cx="410.99" cy="178.44" r="1.05" fill="#3b82f6" opacity="0.45" /><circle cx="428.56" cy="194.39" r="1.25" fill="#3b82f6" opacity="0.51" /><circle cx="357.23" cy="373.72" r="1.53" fill="#dc2626" opacity="0.67" /><circle cx="439.04" cy="355.20" r="1.25" fill="#dc2626" opacity="0.60" /><circle cx="367.76" cy="315.27" r="2.27" fill="#10b981" opacity="0.93" /><circle cx="388.58" cy="340.48" r="2.15" fill="#10b981" opacity="0.83" /><circle cx="420.83" cy="233.75" r="1.44" fill="#3b82f6" opacity="0.64" /><circle cx="396.58" cy="334.68" r="2.03" fill="#10b981" opacity="0.83" /><circle cx="341.87" cy="345.66" r="2.05" fill="#10b981" opacity="0.78" /><circle cx="371.16" cy="386.05" r="1.64" fill="#dc2626" opacity="0.66" /><circle cx="487.03" cy="379.96" r="0.83" fill="#dc2626" opacity="0.38" /><circle cx="424.38" cy="334.70" r="1.95" fill="#10b981" opacity="0.76" /><circle cx="379.91" cy="301.26" r="2.45" fill="#10b981" opacity="0.98" /><circle cx="352.44" cy="330.96" r="2.21" fill="#10b981" opacity="0.85" /><circle cx="389.61" cy="328.74" r="2.29" fill="#10b981" opacity="0.88" /><circle cx="376.65" cy="411.44" r="1.20" fill="#dc2626" opacity="0.52" /><circle cx="372.46" cy="330.12" r="2.12" fill="#10b981" opacity="0.88" /><circle cx="292.15" cy="333.84" r="1.44" fill="#10b981" opacity="0.62" /><circle cx="378.96" cy="326.38" r="2.19" fill="#10b981" opacity="0.89" /><circle cx="361.83" cy="199.02" r="1.27" fill="#3b82f6" opacity="0.56" /><circle cx="358.57" cy="307.60" r="1.90" fill="#10b981" opacity="0.91" /><circle cx="358.15" cy="230.76" r="1.60" fill="#3b82f6" opacity="0.69" /><circle cx="376.78" cy="308.63" r="2.50" fill="#10b981" opacity="0.97" /><circle cx="407.03" cy="309.70" r="1.80" fill="#10b981" opacity="0.84" /><circle cx="416.38" cy="212.84" r="1.39" fill="#3b82f6" opacity="0.59" /><circle cx="377.47" cy="318.20" r="2.24" fill="#10b981" opacity="0.92" /><circle cx="380.85" cy="214.38" r="1.63" fill="#3b82f6" opacity="0.65" /><circle cx="302.21" cy="209.40" r="1.20" fill="#3b82f6" opacity="0.51" /><circle cx="210.21" cy="386.62" r="0.54" fill="#dc2626" opacity="0.23" /><circle cx="374.57" cy="299.58" r="2.50" fill="#10b981" opacity="1.00" /><circle cx="375.56" cy="363.70" r="1.86" fill="#dc2626" opacity="0.74" /><circle cx="398.15" cy="302.14" r="2.31" fill="#10b981" opacity="0.91" /><circle cx="411.57" cy="380.83" r="1.53" fill="#dc2626" opacity="0.63" /><circle cx="381.90" cy="366.23" r="1.82" fill="#dc2626" opacity="0.73" /><circle cx="401.20" cy="415.82" r="1.24" fill="#dc2626" opacity="0.51" /><circle cx="386.30" cy="364.42" r="1.86" fill="#dc2626" opacity="0.74" /><circle cx="369.29" cy="334.60" r="2.12" fill="#10b981" opacity="0.86" /><circle cx="365.08" cy="303.16" r="2.39" fill="#10b981" opacity="0.96" /><circle cx="422.94" cy="361.02" r="1.55" fill="#dc2626" opacity="0.67" /><circle cx="253.11" cy="372.29" r="1.04" fill="#dc2626" opacity="0.42" /><circle cx="395.58" cy="228.66" r="1.54" fill="#3b82f6" opacity="0.68" /><circle cx="387.28" cy="322.47" r="2.35" fill="#10b981" opacity="0.90" /><circle cx="377.14" cy="197.55" r="1.33" fill="#3b82f6" opacity="0.56" /><circle cx="326.93" cy="324.40" r="2.02" fill="#10b981" opacity="0.79" /><circle cx="370.38" cy="301.88" r="2.44" fill="#10b981" opacity="0.98" /><circle cx="318.25" cy="215.64" r="1.24" fill="#3b82f6" opacity="0.55" /><circle cx="373.39" cy="300.55" r="2.48" fill="#10b981" opacity="0.99" /><circle cx="385.18" cy="373.35" r="1.81" fill="#dc2626" opacity="0.71" /><circle cx="387.43" cy="347.85" r="1.95" fill="#10b981" opacity="0.80" /><circle cx="371.24" cy="412.51" r="1.32" fill="#dc2626" opacity="0.54" /><circle cx="423.92" cy="215.99" r="1.42" fill="#3b82f6" opacity="0.59" /><circle cx="372.47" cy="207.06" r="1.55" fill="#3b82f6" opacity="0.62" /><circle cx="529.67" cy="296.78" r="0.57" fill="#10b981" opacity="0.27" /><circle cx="404.36" cy="371.66" r="1.40" fill="#dc2626" opacity="0.64" /><circle cx="347.09" cy="215.09" r="1.22" fill="#3b82f6" opacity="0.58" /><circle cx="375.09" cy="312.68" r="2.48" fill="#10b981" opacity="0.95" /><circle cx="425.67" cy="220.38" r="1.19" fill="#3b82f6" opacity="0.56" /><circle cx="368.95" cy="318.83" r="2.25" fill="#10b981" opacity="0.92" /><circle cx="392.31" cy="299.31" r="2.01" fill="#10b981" opacity="0.92" /><circle cx="360.23" cy="366.57" r="1.95" fill="#dc2626" opacity="0.74" /><circle cx="392.84" cy="301.05" r="2.36" fill="#10b981" opacity="0.93" /><circle cx="375.64" cy="323.04" r="2.22" fill="#10b981" opacity="0.91" /><circle cx="375.89" cy="195.91" r="1.31" fill="#3b82f6" opacity="0.56" /><circle cx="409.32" cy="354.35" r="1.51" fill="#dc2626" opacity="0.70" /><circle cx="374.82" cy="405.38" r="1.42" fill="#dc2626" opacity="0.57" /><circle cx="376.28" cy="366.92" r="1.80" fill="#dc2626" opacity="0.73" /><circle cx="392.06" cy="397.10" r="1.55" fill="#dc2626" opacity="0.61" /><circle cx="373.37" cy="372.82" r="1.76" fill="#dc2626" opacity="0.71" /><circle cx="459.22" cy="289.75" r="1.40" fill="#10b981" opacity="0.62" /><circle cx="423.71" cy="334.50" r="1.45" fill="#10b981" opacity="0.71" /><circle cx="323.40" cy="412.11" r="1.13" fill="#dc2626" opacity="0.48" /><circle cx="230.33" cy="252.43" r="0.70" fill="#3b82f6" opacity="0.31" /><circle cx="233.45" cy="227.25" r="0.70" fill="#3b82f6" opacity="0.30" /><circle cx="381.08" cy="304.22" r="2.50" fill="#10b981" opacity="0.97" /><circle cx="434.32" cy="228.99" r="1.31" fill="#3b82f6" opacity="0.59" /><circle cx="364.89" cy="344.90" r="1.96" fill="#10b981" opacity="0.81" /><circle cx="389.54" cy="311.37" r="2.30" fill="#10b981" opacity="0.93" /><circle cx="491.18" cy="232.30" r="1.06" fill="#3b82f6" opacity="0.44" /><circle cx="313.47" cy="263.24" r="1.56" fill="#10b981" opacity="0.69" /><circle cx="361.04" cy="310.19" r="2.31" fill="#10b981" opacity="0.93" /><circle cx="387.81" cy="323.32" r="2.20" fill="#10b981" opacity="0.89" /><circle cx="367.79" cy="303.25" r="2.40" fill="#10b981" opacity="0.97" /><circle cx="314.45" cy="267.14" r="1.55" fill="#10b981" opacity="0.69" /><circle cx="360.07" cy="309.28" r="2.29" fill="#10b981" opacity="0.93" /><circle cx="296.17" cy="393.42" r="1.09" fill="#dc2626" opacity="0.47" /><circle cx="363.27" cy="315.31" r="2.25" fill="#10b981" opacity="0.92" /><circle cx="411.29" cy="405.73" r="1.06" fill="#dc2626" opacity="0.49" /><circle cx="367.75" cy="303.81" r="2.52" fill="#10b981" opacity="0.97" /><circle cx="361.22" cy="374.89" r="1.61" fill="#dc2626" opacity="0.68" /><circle cx="406.42" cy="324.27" r="2.21" fill="#10b981" opacity="0.85" /><circle cx="339.25" cy="335.91" r="2.02" fill="#10b981" opacity="0.80" /><circle cx="425.17" cy="204.02" r="1.17" fill="#3b82f6" opacity="0.52" /><circle cx="405.86" cy="390.73" r="1.59" fill="#dc2626" opacity="0.62" /><circle cx="447.19" cy="350.85" r="1.46" fill="#dc2626" opacity="0.62" /><circle cx="371.38" cy="381.07" r="1.76" fill="#dc2626" opacity="0.68" /><circle cx="397.47" cy="302.14" r="2.28" fill="#10b981" opacity="0.91" /><circle cx="374.45" cy="304.20" r="2.43" fill="#10b981" opacity="0.98" /><circle cx="368.10" cy="381.78" r="1.66" fill="#dc2626" opacity="0.67" /><circle cx="344.30" cy="373.82" r="1.78" fill="#dc2626" opacity="0.69" /><circle cx="392.94" cy="332.78" r="2.06" fill="#10b981" opacity="0.85" /><circle cx="391.68" cy="300.38" r="2.35" fill="#10b981" opacity="0.93" /><circle cx="372.00" cy="301.13" r="2.46" fill="#10b981" opacity="0.99" /><circle cx="357.62" cy="354.68" r="2.04" fill="#dc2626" opacity="0.78" /><circle cx="372.95" cy="309.66" r="2.51" fill="#10b981" opacity="0.96" /><circle cx="372.12" cy="342.61" r="2.03" fill="#10b981" opacity="0.83" /><circle cx="366.03" cy="401.55" r="1.36" fill="#dc2626" opacity="0.57" /><circle cx="376.67" cy="386.55" r="1.71" fill="#dc2626" opacity="0.66" /><circle cx="374.37" cy="189.46" r="1.11" fill="#3b82f6" opacity="0.50" /><circle cx="373.03" cy="362.28" r="1.87" fill="#dc2626" opacity="0.75" /><circle cx="265.44" cy="419.12" r="0.81" fill="#dc2626" opacity="0.33" /><circle cx="380.70" cy="376.08" r="1.61" fill="#dc2626" opacity="0.68" /><circle cx="388.72" cy="338.81" r="1.69" fill="#10b981" opacity="0.80" /><circle cx="374.81" cy="208.73" r="1.39" fill="#3b82f6" opacity="0.60" /><circle cx="376.13" cy="349.88" r="2.05" fill="#10b981" opacity="0.80" /><circle cx="461.09" cy="268.82" r="1.13" fill="#10b981" opacity="0.55" /><circle cx="379.19" cy="364.39" r="1.88" fill="#dc2626" opacity="0.74" /><circle cx="373.26" cy="221.03" r="1.43" fill="#3b82f6" opacity="0.64" /><circle cx="394.44" cy="329.71" r="2.11" fill="#10b981" opacity="0.86" /><circle cx="359.44" cy="311.78" r="2.27" fill="#10b981" opacity="0.92" /><circle cx="415.35" cy="238.53" r="1.45" fill="#3b82f6" opacity="0.66" /><circle cx="357.55" cy="404.33" r="1.42" fill="#dc2626" opacity="0.57" /><circle cx="286.31" cy="286.27" r="1.29" fill="#10b981" opacity="0.59" /><circle cx="375.80" cy="299.83" r="2.49" fill="#10b981" opacity="1.00" /><circle cx="324.55" cy="363.42" r="1.51" fill="#dc2626" opacity="0.65" /><circle cx="369.71" cy="398.23" r="1.49" fill="#dc2626" opacity="0.60" /><circle cx="397.95" cy="343.55" r="2.12" fill="#10b981" opacity="0.81" /><circle cx="363.85" cy="302.06" r="2.46" fill="#10b981" opacity="0.96" /><circle cx="373.52" cy="376.76" r="1.71" fill="#dc2626" opacity="0.69" /><circle cx="463.90" cy="311.82" r="1.21" fill="#10b981" opacity="0.57" /><circle cx="377.01" cy="320.37" r="2.44" fill="#10b981" opacity="0.92" /><circle cx="331.21" cy="347.46" r="1.59" fill="#dc2626" opacity="0.71" /><circle cx="500.93" cy="312.22" r="0.88" fill="#10b981" opacity="0.41" /><circle cx="376.63" cy="375.60" r="1.70" fill="#dc2626" opacity="0.69" /><circle cx="359.38" cy="359.99" r="2.00" fill="#dc2626" opacity="0.76" /><circle cx="367.09" cy="300.63" r="2.48" fill="#10b981" opacity="0.97" /><circle cx="375.13" cy="341.28" r="2.08" fill="#10b981" opacity="0.83" /><circle cx="358.18" cy="300.76" r="2.36" fill="#10b981" opacity="0.93" /><circle cx="347.80" cy="361.69" r="1.83" fill="#dc2626" opacity="0.73" /><circle cx="375.34" cy="389.49" r="1.62" fill="#dc2626" opacity="0.64" /><circle cx="349.32" cy="151.12" r="0.99" fill="#3b82f6" opacity="0.40" /><circle cx="345.17" cy="409.43" r="1.08" fill="#dc2626" opacity="0.49" /><circle cx="410.21" cy="306.86" r="2.20" fill="#10b981" opacity="0.86" /><circle cx="362.22" cy="174.53" r="1.19" fill="#3b82f6" opacity="0.49" /><circle cx="377.34" cy="358.43" r="1.96" fill="#dc2626" opacity="0.77" /><circle cx="390.57" cy="306.88" r="2.41" fill="#10b981" opacity="0.93" /><circle cx="387.28" cy="317.27" r="2.44" fill="#10b981" opacity="0.92" /><circle cx="336.11" cy="159.27" r="0.94" fill="#3b82f6" opacity="0.39" /><circle cx="455.14" cy="286.50" r="1.35" fill="#10b981" opacity="0.62" /><circle cx="416.29" cy="410.06" r="1.26" fill="#dc2626" opacity="0.52" /><circle cx="385.70" cy="417.16" r="1.16" fill="#dc2626" opacity="0.50" /><circle cx="352.28" cy="307.83" r="2.33" fill="#10b981" opacity="0.91" /><circle cx="375.24" cy="300.19" r="2.49" fill="#10b981" opacity="1.00" /><circle cx="401.47" cy="301.62" r="2.25" fill="#10b981" opacity="0.89" /><circle cx="380.55" cy="357.72" r="2.06" fill="#dc2626" opacity="0.78" /><circle cx="380.47" cy="303.97" r="2.40" fill="#10b981" opacity="0.97" /><circle cx="365.98" cy="335.19" r="2.22" fill="#10b981" opacity="0.86" /><circle cx="374.79" cy="300.95" r="2.54" fill="#10b981" opacity="1.00" /><circle cx="372.55" cy="357.57" r="1.65" fill="#dc2626" opacity="0.74" /><circle cx="356.81" cy="313.03" r="2.37" fill="#10b981" opacity="0.91" /><circle cx="504.75" cy="298.87" r="1.02" fill="#10b981" opacity="0.44" /><circle cx="410.71" cy="231.00" r="1.31" fill="#3b82f6" opacity="0.63" /><circle cx="268.03" cy="367.60" r="0.99" fill="#dc2626" opacity="0.44" /><circle cx="375.92" cy="144.92" r="0.93" fill="#3b82f6" opacity="0.38" /><circle cx="374.32" cy="304.64" r="2.54" fill="#10b981" opacity="0.98" /><circle cx="374.04" cy="344.38" r="2.05" fill="#10b981" opacity="0.82" /><circle cx="503.25" cy="292.52" r="1.03" fill="#10b981" opacity="0.45" /><circle cx="396.55" cy="327.31" r="2.12" fill="#10b981" opacity="0.86" /><circle cx="353.02" cy="172.92" r="1.10" fill="#3b82f6" opacity="0.46" /><circle cx="375.89" cy="298.98" r="2.53" fill="#10b981" opacity="0.99" /><circle cx="381.16" cy="216.66" r="1.65" fill="#3b82f6" opacity="0.66" /><circle cx="408.00" cy="342.36" r="2.07" fill="#10b981" opacity="0.79" /><circle cx="329.75" cy="394.05" r="1.21" fill="#dc2626" opacity="0.54" /><circle cx="396.06" cy="324.31" r="2.32" fill="#10b981" opacity="0.88" /><circle cx="421.70" cy="328.13" r="2.02" fill="#10b981" opacity="0.79" /><circle cx="359.39" cy="169.16" r="1.14" fill="#3b82f6" opacity="0.46" /><circle cx="374.80" cy="299.44" r="2.51" fill="#10b981" opacity="1.00" /><circle cx="366.43" cy="369.82" r="1.51" fill="#dc2626" opacity="0.68" /><circle cx="335.31" cy="369.35" r="1.79" fill="#dc2626" opacity="0.69" /><circle cx="394.65" cy="303.09" r="2.38" fill="#10b981" opacity="0.92" /><circle cx="361.07" cy="359.37" r="1.84" fill="#dc2626" opacity="0.75" /><circle cx="322.00" cy="357.74" r="1.49" fill="#dc2626" opacity="0.65" /><circle cx="306.51" cy="380.46" r="1.32" fill="#dc2626" opacity="0.56" /><circle cx="406.99" cy="282.72" r="1.82" fill="#10b981" opacity="0.83" /><circle cx="367.62" cy="306.69" r="2.37" fill="#10b981" opacity="0.96" /><circle cx="382.19" cy="175.98" r="1.08" fill="#3b82f6" opacity="0.46" /><circle cx="380.62" cy="332.61" r="2.27" fill="#10b981" opacity="0.87" /><circle cx="387.17" cy="336.98" r="2.20" fill="#10b981" opacity="0.85" /><circle cx="368.68" cy="301.97" r="2.43" fill="#10b981" opacity="0.97" /><circle cx="387.96" cy="364.02" r="1.96" fill="#dc2626" opacity="0.75" /><circle cx="281.47" cy="205.12" r="0.92" fill="#3b82f6" opacity="0.41" /><circle cx="363.08" cy="314.25" r="2.45" fill="#10b981" opacity="0.93" /><circle cx="411.66" cy="261.34" r="1.57" fill="#10b981" opacity="0.75" /><circle cx="356.86" cy="308.23" r="2.39" fill="#10b981" opacity="0.92" /><circle cx="387.16" cy="329.92" r="1.81" fill="#10b981" opacity="0.85" /><circle cx="386.70" cy="347.21" r="2.06" fill="#10b981" opacity="0.81" /><circle cx="362.20" cy="355.22" r="2.08" fill="#dc2626" opacity="0.79" /><circle cx="398.63" cy="225.74" r="1.56" fill="#3b82f6" opacity="0.67" /><circle cx="363.69" cy="348.51" r="1.73" fill="#dc2626" opacity="0.78" /><circle cx="270.89" cy="399.26" r="0.97" fill="#dc2626" opacity="0.40" /><circle cx="345.10" cy="374.06" r="1.77" fill="#dc2626" opacity="0.69" /><circle cx="389.27" cy="381.26" r="1.69" fill="#dc2626" opacity="0.67" /><circle cx="385.72" cy="298.96" r="2.41" fill="#10b981" opacity="0.96" /><circle cx="412.49" cy="213.54" r="1.45" fill="#3b82f6" opacity="0.61" /><circle cx="410.37" cy="363.61" r="1.48" fill="#dc2626" opacity="0.67" /><circle cx="338.82" cy="290.36" r="1.66" fill="#10b981" opacity="0.82" /><circle cx="368.63" cy="300.80" r="2.48" fill="#10b981" opacity="0.97" /><circle cx="380.37" cy="413.63" r="1.32" fill="#dc2626" opacity="0.54" /><circle cx="378.14" cy="180.57" r="1.26" fill="#3b82f6" opacity="0.51" /><circle cx="381.32" cy="350.65" r="2.13" fill="#10b981" opacity="0.81" /><circle cx="494.47" cy="393.69" r="0.67" fill="#dc2626" opacity="0.31" /><circle cx="516.80" cy="253.53" r="0.67" fill="#3b82f6" opacity="0.31" /><circle cx="437.15" cy="292.57" r="1.60" fill="#10b981" opacity="0.72" /><circle cx="348.74" cy="324.08" r="2.13" fill="#10b981" opacity="0.86" /><circle cx="346.23" cy="346.10" r="1.56" fill="#dc2626" opacity="0.74" /><circle cx="371.98" cy="348.83" r="1.98" fill="#10b981" opacity="0.80" /><circle cx="340.76" cy="355.51" r="1.39" fill="#dc2626" opacity="0.68" /><circle cx="372.47" cy="346.92" r="2.00" fill="#10b981" opacity="0.81" /><circle cx="375.04" cy="396.53" r="1.53" fill="#dc2626" opacity="0.61" /><circle cx="341.25" cy="409.92" r="1.23" fill="#dc2626" opacity="0.52" /><circle cx="359.50" cy="312.46" r="2.41" fill="#10b981" opacity="0.92" /><circle cx="390.82" cy="299.52" r="2.37" fill="#10b981" opacity="0.94" /><circle cx="374.02" cy="299.82" r="2.49" fill="#10b981" opacity="1.00" /><circle cx="489.08" cy="342.11" r="1.01" fill="#10b981" opacity="0.45" /><circle cx="345.86" cy="356.50" r="1.95" fill="#dc2626" opacity="0.75" /><circle cx="354.12" cy="334.76" r="2.05" fill="#10b981" opacity="0.83" /><circle cx="351.67" cy="339.19" r="2.15" fill="#10b981" opacity="0.83" /><circle cx="385.93" cy="338.93" r="2.07" fill="#10b981" opacity="0.84" /><circle cx="363.42" cy="398.39" r="1.54" fill="#dc2626" opacity="0.61" /><circle cx="382.28" cy="336.64" r="2.06" fill="#10b981" opacity="0.85" /><circle cx="555.32" cy="243.77" r="0.50" fill="#3b82f6" opacity="0.19" /><circle cx="404.08" cy="200.53" r="1.29" fill="#3b82f6" opacity="0.56" /><circle cx="374.11" cy="409.33" r="1.41" fill="#dc2626" opacity="0.56" /><circle cx="445.69" cy="177.06" r="0.97" fill="#3b82f6" opacity="0.40" /><circle cx="374.33" cy="346.04" r="2.02" fill="#10b981" opacity="0.81" /><circle cx="360.14" cy="199.60" r="1.21" fill="#3b82f6" opacity="0.54" /><circle cx="297.59" cy="396.17" r="1.11" fill="#dc2626" opacity="0.47" /><circle cx="350.14" cy="206.15" r="1.40" fill="#3b82f6" opacity="0.59" /><circle cx="436.68" cy="220.72" r="1.30" fill="#3b82f6" opacity="0.56" /><circle cx="374.23" cy="308.55" r="2.38" fill="#10b981" opacity="0.97" /><circle cx="382.69" cy="301.05" r="2.47" fill="#10b981" opacity="0.97" /><circle cx="381.30" cy="330.48" r="2.35" fill="#10b981" opacity="0.88" /><circle cx="378.05" cy="318.55" r="2.25" fill="#10b981" opacity="0.92" /><circle cx="328.11" cy="346.04" r="1.93" fill="#10b981" opacity="0.75" /><circle cx="462.63" cy="328.49" r="1.35" fill="#10b981" opacity="0.59" /><circle cx="370.21" cy="302.73" r="2.52" fill="#10b981" opacity="0.98" /><circle cx="342.19" cy="276.56" r="1.79" fill="#10b981" opacity="0.82" /><circle cx="383.35" cy="299.08" r="2.42" fill="#10b981" opacity="0.97" /><circle cx="418.12" cy="183.27" r="1.21" fill="#3b82f6" opacity="0.49" /><circle cx="410.87" cy="334.04" r="2.13" fill="#10b981" opacity="0.81" /><circle cx="368.59" cy="363.19" r="1.99" fill="#dc2626" opacity="0.76" /><circle cx="378.88" cy="339.75" r="2.03" fill="#10b981" opacity="0.84" /><circle cx="372.73" cy="324.72" r="2.17" fill="#10b981" opacity="0.90" /><circle cx="394.50" cy="395.00" r="1.44" fill="#dc2626" opacity="0.60" /><circle cx="465.89" cy="382.23" r="1.24" fill="#dc2626" opacity="0.50" /><circle cx="383.40" cy="402.78" r="1.19" fill="#dc2626" opacity="0.54" /><circle cx="376.36" cy="304.92" r="2.41" fill="#10b981" opacity="0.98" /><circle cx="374.14" cy="220.14" r="1.29" fill="#3b82f6" opacity="0.62" /><circle cx="366.17" cy="313.65" r="2.29" fill="#10b981" opacity="0.93" /><circle cx="397.82" cy="394.82" r="1.51" fill="#dc2626" opacity="0.61" /><circle cx="373.43" cy="405.09" r="1.48" fill="#dc2626" opacity="0.59" /><circle cx="404.79" cy="326.29" r="1.74" fill="#10b981" opacity="0.81" /><circle cx="377.16" cy="302.33" r="2.45" fill="#10b981" opacity="0.99" /><circle cx="335.95" cy="311.78" r="2.14" fill="#10b981" opacity="0.84" /><circle cx="323.25" cy="267.88" r="1.58" fill="#10b981" opacity="0.72" /><circle cx="391.93" cy="167.49" r="1.09" fill="#3b82f6" opacity="0.45" /><circle cx="352.78" cy="319.14" r="2.28" fill="#10b981" opacity="0.89" /><circle cx="345.38" cy="309.72" r="2.26" fill="#10b981" opacity="0.88" /><circle cx="321.32" cy="191.67" r="0.98" fill="#3b82f6" opacity="0.45" /><circle cx="363.10" cy="391.62" r="1.46" fill="#dc2626" opacity="0.61" /><circle cx="439.27" cy="228.96" r="1.18" fill="#3b82f6" opacity="0.55" /><circle cx="372.58" cy="375.48" r="1.76" fill="#dc2626" opacity="0.70" /><circle cx="371.01" cy="365.00" r="1.97" fill="#dc2626" opacity="0.75" /><circle cx="351.36" cy="383.77" r="1.57" fill="#dc2626" opacity="0.64" /><circle cx="366.51" cy="302.93" r="2.40" fill="#10b981" opacity="0.96" /><circle cx="355.49" cy="382.65" r="1.41" fill="#dc2626" opacity="0.62" /><circle cx="365.62" cy="313.83" r="2.28" fill="#10b981" opacity="0.93" /><circle cx="402.61" cy="315.23" r="2.26" fill="#10b981" opacity="0.88" /><circle cx="436.36" cy="361.88" r="1.48" fill="#dc2626" opacity="0.63" /><circle cx="352.57" cy="311.26" r="2.30" fill="#10b981" opacity="0.90" /><circle cx="404.55" cy="401.95" r="1.38" fill="#dc2626" opacity="0.57" /><circle cx="368.27" cy="348.61" r="2.18" fill="#10b981" opacity="0.82" /><text x="780" y="40" class="text-main" font-size="22" font-weight="800">Neuron</text><text x="862" y="40" font-family="'Inter', sans-serif" font-size="22" font-weight="800" fill="#10b981">FS V2</text><text x="780" y="60" class="text-mono" fill="#94a3b8">Autopilot Nerve Center</text><line x1="750" y1="80" x2="1200" y2="80" class="border" /><circle cx="790" cy="115" r="5" fill="#10b981" /><circle cx="790" cy="115" r="5" fill="none" stroke="#10b981" stroke-width="2" class="pulse" /><text x="810" y="120" class="text-main" font-size="14" font-weight="600">System Listening &amp; Ready</text><line x1="750" y1="150" x2="1200" y2="150" class="border" /><text x="780" y="190" class="text-mono">[SYSTEM] Booting Strangler Fig CLI Router...</text><text x="780" y="215" class="text-mono">[SYSTEM] Neural filesystem mounted successfully.</text><text x="780" y="240" class="text-mono">[16:58:38] [WARN] [EVOLVE:proceed] tag detected.</text><text x="780" y="265" class="text-mono" fill="#10b981">[16:58:38] [INFO] CDP Injection Cooldown: 60s</text><text x="780" y="290" class="text-mono blink" font-weight="700">_</text><line x1="750" y1="480" x2="1200" y2="480" class="border" /><text x="780" y="520" font-family="'JetBrains Mono', monospace" font-size="10" fill="#94a3b8" letter-spacing="1">ACTIVE NEURONS</text><text x="780" y="550" class="text-main" font-size="24" font-weight="800">420</text><text x="1000" y="520" font-family="'JetBrains Mono', monospace" font-size="10" fill="#94a3b8" letter-spacing="1">TOTAL ACTIVATION</text><text x="1000" y="550" class="text-main" font-size="24" font-weight="800">9121</text></svg>