<svg xmlns="http://www.w3.org/2000/svg" viewBox="0 0 1200 600" width="1200" height="600">
	<defs>
		<style>
			@import url('https://fonts.googleapis.com/css2?family=Inter:wght@400;800&amp;family=JetBrains+Mono:wght@400;700&amp;display=swap');
			.bg { fill: #030305; }
			.border { stroke: rgba(255,255,255,0.08); stroke-width: 1; }
			.accent { fill: #10b981; }
			.text-main { fill: #f8fafc; font-family: 'Inter', sans-serif; }
			.text-mono { fill: #a1a1aa; font-family: 'JetBrains Mono', monospace; font-size: 12px; }
			.pulse { animation: pulseAnim 2s infinite; }
			@keyframes pulseAnim {
				0% { r: 5; opacity: 1; }
				50% { r: 15; opacity: 0; }
				100% { r: 5; opacity: 0; }
			}
			.blink { animation: blinkAnim 1s step-end infinite; }
			@keyframes blinkAnim { 50% { opacity: 0; } }
		</style>
		<radialGradient id="hologram" cx="50%" cy="50%" r="50%">
			<stop offset="0%" stop-color="#0a0a14" />
			<stop offset="100%" stop-color="#030305" />
		</radialGradient>
	</defs>
	<rect width="1200" height="600" fill="url(#hologram)" /><rect x="750" y="0" width="450" height="600" fill="rgba(15, 20, 30, 0.6)" class="border" /><line x1="750" y1="0" x2="750" y2="600" class="border" /><circle cx="364.68" cy="321.19" r="2.37" fill="#10b981" opacity="0.91" /><circle cx="386.41" cy="320.30" r="2.36" fill="#10b981" opacity="0.91" /><circle cx="402.05" cy="320.21" r="2.14" fill="#10b981" opacity="0.86" /><circle cx="368.19" cy="165.86" r="1.13" fill="#3b82f6" opacity="0.46" /><circle cx="335.82" cy="309.32" r="2.13" fill="#10b981" opacity="0.84" /><circle cx="380.09" cy="302.98" r="2.42" fill="#10b981" opacity="0.98" /><circle cx="298.77" cy="184.41" r="0.98" fill="#3b82f6" opacity="0.41" /><circle cx="367.24" cy="360.76" r="1.96" fill="#dc2626" opacity="0.76" /><circle cx="323.52" cy="330.92" r="1.58" fill="#10b981" opacity="0.72" /><circle cx="381.41" cy="392.60" r="1.62" fill="#dc2626" opacity="0.64" /><circle cx="474.61" cy="362.95" r="0.95" fill="#dc2626" opacity="0.45" /><circle cx="374.04" cy="188.84" r="1.39" fill="#3b82f6" opacity="0.55" /><circle cx="398.89" cy="418.54" r="1.25" fill="#dc2626" opacity="0.51" /><circle cx="371.24" cy="394.04" r="1.54" fill="#dc2626" opacity="0.62" /><circle cx="347.21" cy="344.01" r="2.07" fill="#10b981" opacity="0.80" /><circle cx="544.99" cy="311.75" r="0.61" fill="#10b981" opacity="0.26" /><circle cx="277.98" cy="390.46" r="1.04" fill="#dc2626" opacity="0.44" /><circle cx="383.94" cy="346.50" r="1.99" fill="#10b981" opacity="0.81" /><circle cx="366.42" cy="352.02" r="2.01" fill="#dc2626" opacity="0.79" /><circle cx="417.64" cy="419.36" r="1.11" fill="#dc2626" opacity="0.47" /><circle cx="423.83" cy="361.92" r="1.82" fill="#dc2626" opacity="0.70" /><circle cx="433.90" cy="280.80" r="1.46" fill="#10b981" opacity="0.70" /><circle cx="383.01" cy="310.47" r="2.46" fill="#10b981" opacity="0.95" /><circle cx="327.65" cy="399.24" r="1.28" fill="#dc2626" opacity="0.54" /><circle cx="367.49" cy="376.04" r="1.81" fill="#dc2626" opacity="0.70" /><circle cx="366.09" cy="301.25" r="2.45" fill="#10b981" opacity="0.96" /><circle cx="456.34" cy="264.21" r="1.31" fill="#10b981" opacity="0.60" /><circle cx="442.56" cy="402.40" r="1.25" fill="#dc2626" opacity="0.50" /><circle cx="408.45" cy="236.18" r="1.61" fill="#3b82f6" opacity="0.69" /><circle cx="386.28" cy="312.88" r="1.92" fill="#10b981" opacity="0.92" /><circle cx="378.11" cy="386.64" r="1.66" fill="#dc2626" opacity="0.66" /><circle cx="360.82" cy="299.42" r="2.37" fill="#10b981" opacity="0.94" /><circle cx="330.56" cy="236.97" r="1.51" fill="#3b82f6" opacity="0.66" /><circle cx="368.91" cy="382.52" r="1.71" fill="#dc2626" opacity="0.67" /><circle cx="373.22" cy="232.80" r="1.67" fill="#3b82f6" opacity="0.71" /><circle cx="433.59" cy="406.56" r="0.99" fill="#dc2626" opacity="0.45" /><circle cx="383.85" cy="193.70" r="1.39" fill="#3b82f6" opacity="0.57" /><circle cx="408.34" cy="309.46" r="2.23" fill="#10b981" opacity="0.87" /><circle cx="314.22" cy="343.30" r="1.55" fill="#10b981" opacity="0.67" /><circle cx="425.29" cy="373.87" r="1.64" fill="#dc2626" opacity="0.65" /><circle cx="420.95" cy="367.01" r="1.40" fill="#dc2626" opacity="0.63" /><circle cx="377.61" cy="398.81" r="1.28" fill="#dc2626" opacity="0.56" /><circle cx="350.51" cy="198.64" r="1.21" fill="#3b82f6" opacity="0.54" /><circle cx="371.11" cy="299.12" r="2.49" fill="#10b981" opacity="0.98" /><circle cx="395.47" cy="414.29" r="1.30" fill="#dc2626" opacity="0.53" /><circle cx="301.31" cy="300.87" r="1.53" fill="#10b981" opacity="0.67" /><circle cx="382.46" cy="404.27" r="1.43" fill="#dc2626" opacity="0.58" /><circle cx="366.83" cy="319.64" r="2.21" fill="#10b981" opacity="0.91" /><circle cx="364.76" cy="308.51" r="2.33" fill="#10b981" opacity="0.95" /><circle cx="282.26" cy="278.78" r="1.41" fill="#10b981" opacity="0.60" /><circle cx="378.94" cy="332.11" r="2.13" fill="#10b981" opacity="0.87" /><circle cx="375.02" cy="299.65" r="2.53" fill="#10b981" opacity="1.00" /><circle cx="248.61" cy="323.65" r="1.17" fill="#10b981" opacity="0.48" /><circle cx="383.05" cy="327.60" r="2.14" fill="#10b981" opacity="0.88" /><circle cx="371.72" cy="375.44" r="1.72" fill="#dc2626" opacity="0.69" /><circle cx="363.68" cy="326.66" r="2.38" fill="#10b981" opacity="0.89" /><circle cx="271.89" cy="277.34" r="1.25" fill="#10b981" opacity="0.54" /><circle cx="383.89" cy="219.09" r="1.57" fill="#3b82f6" opacity="0.66" /><circle cx="413.59" cy="349.54" r="1.91" fill="#10b981" opacity="0.75" /><circle cx="330.51" cy="161.03" r="0.93" fill="#3b82f6" opacity="0.39" /><circle cx="343.44" cy="179.69" r="1.16" fill="#3b82f6" opacity="0.48" /><circle cx="406.75" cy="197.90" r="1.23" fill="#3b82f6" opacity="0.53" /><circle cx="401.01" cy="341.79" r="2.07" fill="#10b981" opacity="0.81" /><circle cx="379.08" cy="303.00" r="2.54" fill="#10b981" opacity="0.98" /><circle cx="367.79" cy="401.51" r="1.41" fill="#dc2626" opacity="0.58" /><circle cx="396.25" cy="216.55" r="1.40" fill="#3b82f6" opacity="0.62" /><circle cx="287.63" cy="191.18" r="1.07" fill="#3b82f6" opacity="0.43" /><circle cx="360.15" cy="372.36" r="1.81" fill="#dc2626" opacity="0.71" /><circle cx="379.71" cy="395.21" r="1.46" fill="#dc2626" opacity="0.61" /><circle cx="359.87" cy="302.86" r="2.02" fill="#10b981" opacity="0.93" /><circle cx="401.75" cy="410.50" r="1.23" fill="#dc2626" opacity="0.52" /><circle cx="385.19" cy="351.91" r="1.92" fill="#dc2626" opacity="0.78" /><circle cx="370.31" cy="310.63" r="2.47" fill="#10b981" opacity="0.96" /><circle cx="404.45" cy="241.89" r="1.53" fill="#3b82f6" opacity="0.70" /><circle cx="359.72" cy="219.81" r="1.38" fill="#3b82f6" opacity="0.63" /><circle cx="407.29" cy="391.32" r="1.32" fill="#dc2626" opacity="0.58" /><circle cx="375.19" cy="357.79" r="1.90" fill="#dc2626" opacity="0.77" /><circle cx="359.53" cy="306.16" r="2.32" fill="#10b981" opacity="0.93" /><circle cx="350.00" cy="365.70" r="1.83" fill="#dc2626" opacity="0.72" /><circle cx="361.95" cy="351.19" r="1.94" fill="#dc2626" opacity="0.79" /><circle cx="379.25" cy="382.93" r="1.42" fill="#dc2626" opacity="0.63" /><circle cx="361.04" cy="345.73" r="2.00" fill="#10b981" opacity="0.81" /><circle cx="408.36" cy="200.11" r="1.16" fill="#3b82f6" opacity="0.52" /><circle cx="283.71" cy="386.04" r="1.16" fill="#dc2626" opacity="0.48" /><circle cx="382.18" cy="319.14" r="2.43" fill="#10b981" opacity="0.92" /><circle cx="542.32" cy="286.06" r="0.69" fill="#10b981" opacity="0.29" /><circle cx="301.47" cy="321.32" r="1.49" fill="#10b981" opacity="0.66" /><circle cx="368.83" cy="161.64" r="0.98" fill="#3b82f6" opacity="0.42" /><circle cx="403.58" cy="358.80" r="2.01" fill="#dc2626" opacity="0.75" /><circle cx="357.28" cy="313.01" r="2.39" fill="#10b981" opacity="0.92" /><circle cx="381.64" cy="377.88" r="1.73" fill="#dc2626" opacity="0.69" /><circle cx="369.53" cy="358.34" r="1.98" fill="#dc2626" opacity="0.77" /><circle cx="388.13" cy="348.07" r="2.03" fill="#10b981" opacity="0.80" /><circle cx="373.38" cy="342.66" r="2.15" fill="#10b981" opacity="0.83" /><circle cx="346.81" cy="364.44" r="1.68" fill="#dc2626" opacity="0.71" /><circle cx="309.35" cy="292.61" r="1.37" fill="#10b981" opacity="0.68" /><circle cx="274.26" cy="283.56" r="1.39" fill="#10b981" opacity="0.58" /><circle cx="367.00" cy="310.02" r="2.34" fill="#10b981" opacity="0.95" /><circle cx="488.30" cy="280.57" r="1.28" fill="#10b981" opacity="0.53" /><circle cx="372.39" cy="369.02" r="1.81" fill="#dc2626" opacity="0.72" /><circle cx="397.71" cy="303.46" r="2.35" fill="#10b981" opacity="0.91" /><circle cx="349.07" cy="351.93" r="2.02" fill="#10b981" opacity="0.78" /><circle cx="356.42" cy="411.56" r="1.30" fill="#dc2626" opacity="0.53" /><circle cx="391.96" cy="309.05" r="2.29" fill="#10b981" opacity="0.92" /><circle cx="375.01" cy="371.53" r="1.78" fill="#dc2626" opacity="0.71" /><circle cx="378.88" cy="299.19" r="2.51" fill="#10b981" opacity="0.98" /><circle cx="518.65" cy="219.22" r="0.69" fill="#3b82f6" opacity="0.30" /><circle cx="345.27" cy="271.23" r="1.71" fill="#10b981" opacity="0.81" /><circle cx="429.92" cy="331.06" r="1.41" fill="#10b981" opacity="0.69" /><circle cx="372.19" cy="361.85" r="1.77" fill="#dc2626" opacity="0.74" /><circle cx="350.84" cy="303.53" r="2.30" fill="#10b981" opacity="0.90" /><circle cx="398.12" cy="302.45" r="2.30" fill="#10b981" opacity="0.91" /><circle cx="371.45" cy="340.93" r="1.78" fill="#10b981" opacity="0.81" /><circle cx="361.65" cy="357.80" r="2.08" fill="#dc2626" opacity="0.78" /><circle cx="348.34" cy="344.30" r="2.10" fill="#10b981" opacity="0.80" /><circle cx="361.52" cy="311.64" r="2.44" fill="#10b981" opacity="0.93" /><circle cx="411.21" cy="218.50" r="1.56" fill="#3b82f6" opacity="0.64" /><circle cx="379.06" cy="327.76" r="2.14" fill="#10b981" opacity="0.88" /><circle cx="388.81" cy="307.58" r="2.32" fill="#10b981" opacity="0.94" /><circle cx="307.85" cy="394.24" r="1.04" fill="#dc2626" opacity="0.47" /><circle cx="375.04" cy="369.89" r="1.75" fill="#dc2626" opacity="0.71" /><circle cx="391.70" cy="317.97" r="2.36" fill="#10b981" opacity="0.91" /><circle cx="352.12" cy="402.39" r="1.30" fill="#dc2626" opacity="0.55" /><circle cx="374.70" cy="220.29" r="1.65" fill="#3b82f6" opacity="0.67" /><circle cx="378.75" cy="303.64" r="2.42" fill="#10b981" opacity="0.98" /><circle cx="362.99" cy="353.51" r="1.89" fill="#dc2626" opacity="0.78" /><circle cx="306.03" cy="273.03" r="1.34" fill="#10b981" opacity="0.64" /><circle cx="366.85" cy="299.33" r="2.47" fill="#10b981" opacity="0.97" /><circle cx="354.48" cy="332.35" r="2.06" fill="#10b981" opacity="0.84" /><circle cx="365.88" cy="305.86" r="2.36" fill="#10b981" opacity="0.96" /><circle cx="380.38" cy="385.14" r="1.68" fill="#dc2626" opacity="0.66" /><circle cx="369.97" cy="371.66" r="1.78" fill="#dc2626" opacity="0.71" /><circle cx="363.81" cy="369.00" r="1.81" fill="#dc2626" opacity="0.72" /><circle cx="338.12" cy="343.91" r="1.97" fill="#10b981" opacity="0.77" /><circle cx="481.89" cy="386.23" r="0.79" fill="#dc2626" opacity="0.36" /><circle cx="360.99" cy="268.58" r="1.70" fill="#10b981" opacity="0.83" /><circle cx="429.46" cy="366.42" r="1.51" fill="#dc2626" opacity="0.64" /><circle cx="295.09" cy="378.01" r="1.19" fill="#dc2626" opacity="0.51" /><circle cx="373.98" cy="308.71" r="2.37" fill="#10b981" opacity="0.96" /><circle cx="391.25" cy="265.85" r="1.66" fill="#10b981" opacity="0.81" /><circle cx="379.35" cy="299.15" r="2.48" fill="#10b981" opacity="0.98" /><circle cx="482.65" cy="348.85" r="1.10" fill="#dc2626" opacity="0.48" /><circle cx="354.72" cy="253.94" r="1.65" fill="#3b82f6" opacity="0.77" /><circle cx="202.24" cy="303.79" r="0.61" fill="#10b981" opacity="0.26" /><circle cx="476.72" cy="390.46" r="1.00" fill="#dc2626" opacity="0.42" /><circle cx="373.09" cy="407.46" r="1.45" fill="#dc2626" opacity="0.57" /><circle cx="346.09" cy="310.20" r="2.23" fill="#10b981" opacity="0.88" /><circle cx="442.30" cy="236.56" r="1.24" fill="#3b82f6" opacity="0.57" /><circle cx="363.08" cy="338.35" r="2.06" fill="#10b981" opacity="0.84" /><circle cx="372.22" cy="370.56" r="1.79" fill="#dc2626" opacity="0.72" /><circle cx="385.45" cy="364.93" r="1.87" fill="#dc2626" opacity="0.74" /><circle cx="370.15" cy="341.02" r="2.23" fill="#10b981" opacity="0.84" /><circle cx="385.15" cy="316.91" r="2.43" fill="#10b981" opacity="0.92" /><circle cx="374.17" cy="299.62" r="2.50" fill="#10b981" opacity="1.00" /><circle cx="360.76" cy="300.99" r="2.40" fill="#10b981" opacity="0.94" /><circle cx="401.41" cy="311.44" r="2.28" fill="#10b981" opacity="0.89" /><circle cx="391.55" cy="355.86" r="1.93" fill="#dc2626" opacity="0.77" /><circle cx="347.54" cy="363.84" r="1.84" fill="#dc2626" opacity="0.73" /><circle cx="369.76" cy="301.28" r="2.50" fill="#10b981" opacity="0.98" /><circle cx="369.89" cy="299.69" r="2.48" fill="#10b981" opacity="0.98" /><circle cx="425.89" cy="196.05" r="1.11" fill="#3b82f6" opacity="0.49" /><circle cx="270.76" cy="330.91" r="1.25" fill="#10b981" opacity="0.53" /><circle cx="398.58" cy="392.74" r="1.31" fill="#dc2626" opacity="0.58" /><circle cx="394.11" cy="294.54" r="1.86" fill="#10b981" opacity="0.90" /><circle cx="375.48" cy="300.20" r="2.49" fill="#10b981" opacity="1.00" /><circle cx="370.71" cy="305.72" r="2.39" fill="#10b981" opacity="0.97" /><circle cx="283.15" cy="364.63" r="1.11" fill="#dc2626" opacity="0.50" /><circle cx="372.95" cy="302.80" r="2.44" fill="#10b981" opacity="0.99" /><circle cx="447.12" cy="388.56" r="1.25" fill="#dc2626" opacity="0.52" /><circle cx="384.76" cy="356.74" r="2.03" fill="#dc2626" opacity="0.78" /><circle cx="370.04" cy="362.68" r="1.91" fill="#dc2626" opacity="0.75" /><circle cx="369.79" cy="310.07" r="2.49" fill="#10b981" opacity="0.96" /><circle cx="284.18" cy="266.82" r="1.08" fill="#10b981" opacity="0.53" /><circle cx="355.06" cy="362.54" r="2.00" fill="#dc2626" opacity="0.75" /><circle cx="374.88" cy="395.69" r="1.55" fill="#dc2626" opacity="0.62" /><circle cx="366.00" cy="354.61" r="2.00" fill="#dc2626" opacity="0.78" /><circle cx="394.26" cy="376.29" r="1.45" fill="#dc2626" opacity="0.65" /><circle cx="401.68" cy="211.87" r="1.38" fill="#3b82f6" opacity="0.60" /><circle cx="352.88" cy="176.55" r="0.97" fill="#3b82f6" opacity="0.44" /><circle cx="346.87" cy="353.69" r="1.41" fill="#dc2626" opacity="0.70" /><circle cx="378.56" cy="299.30" r="2.47" fill="#10b981" opacity="0.99" /><circle cx="370.53" cy="367.65" r="1.81" fill="#dc2626" opacity="0.73" /><circle cx="382.22" cy="335.24" r="2.13" fill="#10b981" opacity="0.86" /><circle cx="364.20" cy="332.39" r="1.87" fill="#10b981" opacity="0.85" /><circle cx="422.90" cy="185.93" r="1.20" fill="#3b82f6" opacity="0.49" /><circle cx="373.94" cy="408.73" r="1.40" fill="#dc2626" opacity="0.56" /><circle cx="432.11" cy="340.51" r="1.90" fill="#10b981" opacity="0.73" /><circle cx="374.27" cy="310.94" r="2.34" fill="#10b981" opacity="0.96" /><circle cx="436.07" cy="364.19" r="1.47" fill="#dc2626" opacity="0.62" /><circle cx="349.47" cy="355.92" r="1.58" fill="#dc2626" opacity="0.72" /><circle cx="350.88" cy="309.70" r="2.32" fill="#10b981" opacity="0.90" /><circle cx="388.58" cy="331.96" r="2.13" fill="#10b981" opacity="0.86" /><circle cx="387.21" cy="346.82" r="2.00" fill="#10b981" opacity="0.80" /><circle cx="347.52" cy="405.53" r="1.13" fill="#dc2626" opacity="0.51" /><circle cx="378.38" cy="383.05" r="1.62" fill="#dc2626" opacity="0.66" /><circle cx="574.65" cy="337.30" r="0.50" fill="#10b981" opacity="0.18" /><circle cx="361.27" cy="314.62" r="2.24" fill="#10b981" opacity="0.92" /><circle cx="378.72" cy="301.02" r="2.46" fill="#10b981" opacity="0.98" /><circle cx="349.07" cy="367.27" r="1.55" fill="#dc2626" opacity="0.68" /><circle cx="331.25" cy="407.61" r="1.23" fill="#dc2626" opacity="0.51" /><circle cx="387.29" cy="308.02" r="2.43" fill="#10b981" opacity="0.94" /><circle cx="451.65" cy="400.37" r="0.93" fill="#dc2626" opacity="0.42" /><circle cx="376.86" cy="412.92" r="1.36" fill="#dc2626" opacity="0.55" /><circle cx="328.40" cy="218.85" r="1.43" fill="#3b82f6" opacity="0.60" /><circle cx="428.97" cy="256.58" r="1.36" fill="#3b82f6" opacity="0.66" /><circle cx="389.72" cy="307.62" r="2.31" fill="#10b981" opacity="0.93" /><circle cx="536.78" cy="241.41" r="0.56" fill="#3b82f6" opacity="0.25" /><circle cx="380.52" cy="378.74" r="1.72" fill="#dc2626" opacity="0.69" /><circle cx="491.72" cy="288.95" r="0.93" fill="#10b981" opacity="0.44" /><circle cx="406.48" cy="310.46" r="1.72" fill="#10b981" opacity="0.84" /><circle cx="359.72" cy="346.45" r="2.10" fill="#10b981" opacity="0.81" /><circle cx="347.70" cy="372.55" r="1.86" fill="#dc2626" opacity="0.71" /><circle cx="370.71" cy="387.30" r="1.42" fill="#dc2626" opacity="0.62" /><circle cx="473.60" cy="172.01" r="0.75" fill="#3b82f6" opacity="0.32" /><circle cx="368.23" cy="166.52" r="1.10" fill="#3b82f6" opacity="0.45" /><circle cx="450.41" cy="165.49" r="0.78" fill="#3b82f6" opacity="0.34" /><circle cx="375.01" cy="196.18" r="1.46" fill="#3b82f6" opacity="0.58" /><circle cx="353.24" cy="414.87" r="1.10" fill="#dc2626" opacity="0.49" /><circle cx="381.41" cy="306.14" r="2.38" fill="#10b981" opacity="0.96" /><circle cx="379.38" cy="302.86" r="2.43" fill="#10b981" opacity="0.98" /><circle cx="374.96" cy="300.02" r="2.50" fill="#10b981" opacity="1.00" /><circle cx="411.30" cy="202.18" r="1.34" fill="#3b82f6" opacity="0.56" /><circle cx="395.66" cy="334.02" r="2.05" fill="#10b981" opacity="0.84" /><circle cx="303.26" cy="254.84" r="1.28" fill="#3b82f6" opacity="0.60" /><circle cx="308.60" cy="372.18" r="1.43" fill="#dc2626" opacity="0.59" /><circle cx="343.21" cy="386.32" r="1.38" fill="#dc2626" opacity="0.60" /><circle cx="366.66" cy="325.81" r="2.32" fill="#10b981" opacity="0.90" /><circle cx="337.82" cy="241.63" r="1.51" fill="#3b82f6" opacity="0.69" /><circle cx="362.20" cy="306.00" r="2.34" fill="#10b981" opacity="0.94" /><circle cx="246.82" cy="363.19" r="0.91" fill="#dc2626" opacity="0.39" /><circle cx="371.87" cy="303.68" r="2.43" fill="#10b981" opacity="0.98" /><circle cx="370.98" cy="311.44" r="2.32" fill="#10b981" opacity="0.95" /><circle cx="358.37" cy="327.45" r="2.14" fill="#10b981" opacity="0.87" /><circle cx="429.86" cy="198.38" r="1.14" fill="#3b82f6" opacity="0.50" /><circle cx="365.79" cy="316.47" r="2.25" fill="#10b981" opacity="0.92" /><circle cx="368.23" cy="390.43" r="1.71" fill="#dc2626" opacity="0.65" /><circle cx="232.39" cy="328.06" r="0.76" fill="#10b981" opacity="0.34" /><circle cx="505.15" cy="368.16" r="0.84" fill="#dc2626" opacity="0.36" /><circle cx="314.46" cy="389.06" r="1.33" fill="#dc2626" opacity="0.55" /><circle cx="395.00" cy="357.39" r="1.96" fill="#dc2626" opacity="0.76" /><circle cx="379.85" cy="307.21" r="2.52" fill="#10b981" opacity="0.97" /><circle cx="376.73" cy="334.65" r="2.09" fill="#10b981" opacity="0.86" /><circle cx="371.50" cy="219.01" r="1.68" fill="#3b82f6" opacity="0.67" /><circle cx="462.72" cy="361.17" r="1.33" fill="#dc2626" opacity="0.55" /><circle cx="388.71" cy="324.03" r="2.32" fill="#10b981" opacity="0.89" /><circle cx="358.90" cy="299.69" r="2.36" fill="#10b981" opacity="0.94" /><circle cx="335.76" cy="315.43" r="1.63" fill="#10b981" opacity="0.79" /><circle cx="385.83" cy="340.22" r="2.19" fill="#10b981" opacity="0.84" /><circle cx="346.20" cy="329.09" r="2.22" fill="#10b981" opacity="0.84" /><circle cx="451.52" cy="361.36" r="1.40" fill="#dc2626" opacity="0.59" /><circle cx="399.97" cy="187.85" r="1.33" fill="#3b82f6" opacity="0.54" /><circle cx="328.20" cy="340.67" r="1.93" fill="#10b981" opacity="0.76" /><circle cx="385.17" cy="361.79" r="1.93" fill="#dc2626" opacity="0.76" /><circle cx="386.51" cy="220.07" r="1.67" fill="#3b82f6" opacity="0.67" /><circle cx="300.87" cy="275.02" r="1.44" fill="#10b981" opacity="0.65" /><circle cx="387.29" cy="312.03" r="2.28" fill="#10b981" opacity="0.93" /><circle cx="381.56" cy="325.52" r="2.17" fill="#10b981" opacity="0.89" /><circle cx="393.64" cy="166.84" r="1.06" fill="#3b82f6" opacity="0.44" /><circle cx="440.79" cy="395.43" r="1.19" fill="#dc2626" opacity="0.51" /><circle cx="424.41" cy="364.45" r="1.75" fill="#dc2626" opacity="0.68" /><circle cx="405.92" cy="395.81" r="1.13" fill="#dc2626" opacity="0.53" /><circle cx="299.92" cy="313.81" r="1.28" fill="#10b981" opacity="0.63" /><circle cx="358.74" cy="303.06" r="2.39" fill="#10b981" opacity="0.94" /><circle cx="398.15" cy="206.12" r="1.48" fill="#3b82f6" opacity="0.61" /><circle cx="428.55" cy="415.18" r="1.10" fill="#dc2626" opacity="0.46" /><circle cx="357.65" cy="375.50" r="1.69" fill="#dc2626" opacity="0.69" /><circle cx="384.05" cy="318.01" r="2.25" fill="#10b981" opacity="0.92" /><circle cx="381.55" cy="358.60" r="2.00" fill="#dc2626" opacity="0.77" /><circle cx="359.55" cy="396.64" r="1.56" fill="#dc2626" opacity="0.61" /><circle cx="371.39" cy="362.14" r="1.86" fill="#dc2626" opacity="0.75" /><circle cx="339.14" cy="266.21" r="1.71" fill="#10b981" opacity="0.78" /><circle cx="387.96" cy="362.65" r="1.72" fill="#dc2626" opacity="0.73" /><circle cx="304.58" cy="235.37" r="1.41" fill="#3b82f6" opacity="0.60" /><circle cx="382.66" cy="319.51" r="2.40" fill="#10b981" opacity="0.92" /><circle cx="306.13" cy="246.05" r="1.48" fill="#3b82f6" opacity="0.63" /><circle cx="344.08" cy="375.92" r="1.62" fill="#dc2626" opacity="0.66" /><circle cx="346.37" cy="215.58" r="1.50" fill="#3b82f6" opacity="0.63" /><circle cx="368.69" cy="299.52" r="2.45" fill="#10b981" opacity="0.97" /><circle cx="344.03" cy="391.41" r="1.32" fill="#dc2626" opacity="0.58" /><circle cx="372.07" cy="343.93" r="2.05" fill="#10b981" opacity="0.82" /><circle cx="363.96" cy="289.65" r="1.96" fill="#10b981" opacity="0.93" /><circle cx="383.82" cy="355.69" r="1.89" fill="#dc2626" opacity="0.77" /><circle cx="350.78" cy="351.93" r="1.95" fill="#dc2626" opacity="0.77" /><circle cx="505.58" cy="323.43" r="0.89" fill="#10b981" opacity="0.40" /><circle cx="185.33" cy="304.85" r="0.50" fill="#10b981" opacity="0.20" /><circle cx="488.55" cy="352.59" r="0.88" fill="#dc2626" opacity="0.41" /><circle cx="297.34" cy="244.38" r="1.37" fill="#3b82f6" opacity="0.59" /><circle cx="410.15" cy="213.96" r="1.27" fill="#3b82f6" opacity="0.58" /><circle cx="347.57" cy="381.08" r="1.47" fill="#dc2626" opacity="0.63" /><circle cx="380.34" cy="306.34" r="2.38" fill="#10b981" opacity="0.97" /><circle cx="355.04" cy="355.39" r="1.88" fill="#dc2626" opacity="0.76" /><circle cx="399.38" cy="205.32" r="1.44" fill="#3b82f6" opacity="0.60" /><circle cx="377.60" cy="209.25" r="1.59" fill="#3b82f6" opacity="0.64" /><circle cx="372.63" cy="302.86" r="2.44" fill="#10b981" opacity="0.99" /><circle cx="393.94" cy="413.55" r="1.28" fill="#dc2626" opacity="0.53" /><circle cx="385.69" cy="361.66" r="1.87" fill="#dc2626" opacity="0.75" /><circle cx="384.03" cy="312.75" r="2.28" fill="#10b981" opacity="0.94" /><circle cx="274.07" cy="285.05" r="1.38" fill="#10b981" opacity="0.57" /><circle cx="385.20" cy="309.36" r="2.33" fill="#10b981" opacity="0.94" /><circle cx="391.72" cy="320.29" r="2.36" fill="#10b981" opacity="0.90" /><circle cx="499.33" cy="267.03" r="0.96" fill="#10b981" opacity="0.43" /><circle cx="346.79" cy="340.90" r="2.08" fill="#10b981" opacity="0.81" /><circle cx="366.86" cy="361.52" r="1.71" fill="#dc2626" opacity="0.73" /><circle cx="388.68" cy="303.39" r="2.44" fill="#10b981" opacity="0.95" /><circle cx="374.36" cy="212.22" r="1.59" fill="#3b82f6" opacity="0.64" /><circle cx="360.31" cy="299.36" r="2.38" fill="#10b981" opacity="0.94" /><circle cx="527.13" cy="322.71" r="0.72" fill="#10b981" opacity="0.32" /><circle cx="393.99" cy="340.45" r="1.98" fill="#10b981" opacity="0.82" /><circle cx="386.38" cy="225.70" r="1.45" fill="#3b82f6" opacity="0.66" /><circle cx="305.71" cy="396.72" r="1.18" fill="#dc2626" opacity="0.50" /><circle cx="397.17" cy="348.87" r="2.14" fill="#10b981" opacity="0.80" /><circle cx="364.60" cy="300.09" r="2.41" fill="#10b981" opacity="0.96" /><circle cx="371.20" cy="357.26" r="1.96" fill="#dc2626" opacity="0.77" /><circle cx="352.35" cy="306.82" r="2.32" fill="#10b981" opacity="0.91" /><circle cx="524.96" cy="342.37" r="0.83" fill="#10b981" opacity="0.35" /><circle cx="334.94" cy="207.23" r="1.11" fill="#3b82f6" opacity="0.52" /><circle cx="416.31" cy="420.43" r="1.15" fill="#dc2626" opacity="0.47" /><circle cx="375.98" cy="299.71" r="2.49" fill="#10b981" opacity="1.00" /><circle cx="391.66" cy="337.45" r="2.26" fill="#10b981" opacity="0.85" /><circle cx="347.04" cy="361.44" r="1.65" fill="#dc2626" opacity="0.71" /><circle cx="328.91" cy="348.46" r="1.46" fill="#dc2626" opacity="0.69" /><circle cx="295.94" cy="253.37" r="1.21" fill="#3b82f6" opacity="0.57" /><circle cx="394.88" cy="307.21" r="2.39" fill="#10b981" opacity="0.92" /><circle cx="490.86" cy="306.66" r="0.93" fill="#10b981" opacity="0.44" /><circle cx="320.92" cy="345.83" r="1.52" fill="#dc2626" opacity="0.68" /><circle cx="541.08" cy="259.87" r="0.58" fill="#10b981" opacity="0.25" /><circle cx="394.97" cy="379.44" r="1.77" fill="#dc2626" opacity="0.68" /><circle cx="368.50" cy="388.49" r="1.59" fill="#dc2626" opacity="0.64" /><circle cx="380.20" cy="338.34" r="2.07" fill="#10b981" opacity="0.84" /><circle cx="378.73" cy="353.83" r="1.96" fill="#dc2626" opacity="0.78" /><circle cx="303.76" cy="252.12" r="1.49" fill="#3b82f6" opacity="0.63" /><circle cx="224.53" cy="275.80" r="0.69" fill="#10b981" opacity="0.31" /><circle cx="334.86" cy="378.13" r="1.43" fill="#dc2626" opacity="0.62" /><circle cx="361.37" cy="379.29" r="1.66" fill="#dc2626" opacity="0.67" /><circle cx="380.52" cy="299.18" r="2.47" fill="#10b981" opacity="0.98" /><circle cx="371.16" cy="364.22" r="1.99" fill="#dc2626" opacity="0.76" /><circle cx="342.40" cy="232.99" r="1.36" fill="#3b82f6" opacity="0.65" /><circle cx="286.34" cy="314.88" r="1.27" fill="#10b981" opacity="0.58" /><circle cx="354.39" cy="326.82" r="2.10" fill="#10b981" opacity="0.86" /><circle cx="386.83" cy="311.79" r="2.44" fill="#10b981" opacity="0.94" /><circle cx="338.08" cy="309.84" r="2.19" fill="#10b981" opacity="0.85" /><circle cx="362.36" cy="175.12" r="1.18" fill="#3b82f6" opacity="0.48" /><circle cx="447.81" cy="352.60" r="1.32" fill="#dc2626" opacity="0.60" /><circle cx="230.94" cy="317.94" r="0.73" fill="#10b981" opacity="0.33" /><circle cx="381.73" cy="393.75" r="1.52" fill="#dc2626" opacity="0.62" /><circle cx="376.47" cy="358.79" r="1.91" fill="#dc2626" opacity="0.76" /><circle cx="374.92" cy="300.80" r="2.48" fill="#10b981" opacity="1.00" /><circle cx="379.29" cy="361.99" r="1.88" fill="#dc2626" opacity="0.75" /><circle cx="337.48" cy="313.62" r="2.16" fill="#10b981" opacity="0.84" /><circle cx="363.42" cy="304.59" r="2.37" fill="#10b981" opacity="0.95" /><circle cx="378.90" cy="300.99" r="2.46" fill="#10b981" opacity="0.98" /><circle cx="298.96" cy="360.51" r="1.19" fill="#dc2626" opacity="0.55" /><circle cx="398.88" cy="306.99" r="2.34" fill="#10b981" opacity="0.90" /><circle cx="304.07" cy="322.54" r="1.54" fill="#10b981" opacity="0.67" /><circle cx="381.98" cy="208.73" r="1.34" fill="#3b82f6" opacity="0.59" /><circle cx="370.11" cy="374.01" r="1.58" fill="#dc2626" opacity="0.68" /><circle cx="381.25" cy="324.64" r="1.76" fill="#10b981" opacity="0.87" /><circle cx="266.87" cy="213.05" r="0.94" fill="#3b82f6" opacity="0.40" /><circle cx="396.00" cy="337.21" r="2.13" fill="#10b981" opacity="0.83" /><circle cx="401.68" cy="314.41" r="2.32" fill="#10b981" opacity="0.88" /><circle cx="388.97" cy="384.66" r="1.60" fill="#dc2626" opacity="0.65" /><circle cx="358.85" cy="311.47" r="2.38" fill="#10b981" opacity="0.92" /><circle cx="375.28" cy="321.99" r="2.21" fill="#10b981" opacity="0.91" /><circle cx="378.17" cy="156.60" r="1.06" fill="#3b82f6" opacity="0.42" /><circle cx="375.33" cy="300.35" r="2.49" fill="#10b981" opacity="1.00" /><circle cx="371.13" cy="304.99" r="2.41" fill="#10b981" opacity="0.97" /><circle cx="376.37" cy="299.50" r="2.49" fill="#10b981" opacity="0.99" /><circle cx="375.63" cy="347.98" r="1.97" fill="#10b981" opacity="0.80" /><circle cx="374.60" cy="299.89" r="2.50" fill="#10b981" opacity="1.00" /><circle cx="382.82" cy="329.36" r="1.88" fill="#10b981" opacity="0.86" /><circle cx="373.15" cy="182.76" r="1.27" fill="#3b82f6" opacity="0.52" /><circle cx="352.46" cy="316.00" r="2.19" fill="#10b981" opacity="0.89" /><circle cx="229.76" cy="253.69" r="0.86" fill="#10b981" opacity="0.36" /><circle cx="380.80" cy="245.97" r="1.62" fill="#3b82f6" opacity="0.75" /><circle cx="496.26" cy="265.72" r="0.92" fill="#10b981" opacity="0.42" /><circle cx="354.45" cy="309.17" r="2.36" fill="#10b981" opacity="0.91" /><circle cx="361.38" cy="350.95" r="2.08" fill="#10b981" opacity="0.80" /><circle cx="342.77" cy="321.47" r="2.22" fill="#10b981" opacity="0.85" /><circle cx="387.56" cy="309.00" r="2.32" fill="#10b981" opacity="0.94" /><circle cx="393.50" cy="234.46" r="1.64" fill="#3b82f6" opacity="0.71" /><circle cx="312.66" cy="277.06" r="1.61" fill="#10b981" opacity="0.71" /><circle cx="381.53" cy="319.73" r="2.23" fill="#10b981" opacity="0.91" /><circle cx="347.16" cy="310.78" r="2.25" fill="#10b981" opacity="0.88" /><circle cx="370.13" cy="299.28" r="2.46" fill="#10b981" opacity="0.98" /><circle cx="452.08" cy="299.37" r="1.42" fill="#10b981" opacity="0.65" /><circle cx="375.27" cy="313.68" r="2.31" fill="#10b981" opacity="0.94" /><circle cx="385.84" cy="332.01" r="2.12" fill="#10b981" opacity="0.86" /><circle cx="470.43" cy="237.33" r="1.20" fill="#3b82f6" opacity="0.51" /><circle cx="391.71" cy="329.96" r="1.76" fill="#10b981" opacity="0.84" /><circle cx="365.02" cy="355.26" r="1.91" fill="#dc2626" opacity="0.77" /><circle cx="368.64" cy="305.00" r="2.39" fill="#10b981" opacity="0.97" /><circle cx="362.35" cy="307.15" r="2.33" fill="#10b981" opacity="0.94" /><circle cx="386.49" cy="309.14" r="2.33" fill="#10b981" opacity="0.94" /><circle cx="378.65" cy="314.42" r="2.29" fill="#10b981" opacity="0.94" /><circle cx="369.72" cy="352.29" r="1.93" fill="#dc2626" opacity="0.79" /><circle cx="384.22" cy="300.87" r="2.46" fill="#10b981" opacity="0.96" /><circle cx="384.84" cy="306.89" r="2.34" fill="#10b981" opacity="0.95" /><circle cx="376.69" cy="300.44" r="2.48" fill="#10b981" opacity="0.99" /><circle cx="357.84" cy="397.61" r="1.21" fill="#dc2626" opacity="0.55" /><circle cx="346.88" cy="334.90" r="2.01" fill="#10b981" opacity="0.82" /><circle cx="371.68" cy="348.81" r="2.07" fill="#10b981" opacity="0.81" /><circle cx="325.49" cy="228.90" r="1.53" fill="#3b82f6" opacity="0.64" /><circle cx="363.24" cy="406.74" r="1.35" fill="#dc2626" opacity="0.56" /><circle cx="383.30" cy="309.26" r="2.34" fill="#10b981" opacity="0.95" /><circle cx="333.33" cy="377.39" r="1.49" fill="#dc2626" opacity="0.63" /><circle cx="375.08" cy="299.40" r="2.52" fill="#10b981" opacity="1.00" /><circle cx="320.80" cy="401.96" r="1.30" fill="#dc2626" opacity="0.53" /><circle cx="386.55" cy="210.41" r="1.36" fill="#3b82f6" opacity="0.60" /><circle cx="361.12" cy="389.48" r="1.53" fill="#dc2626" opacity="0.63" /><circle cx="359.99" cy="255.51" r="1.78" fill="#10b981" opacity="0.79" /><circle cx="331.41" cy="190.75" r="1.07" fill="#3b82f6" opacity="0.48" /><circle cx="362.70" cy="346.83" r="2.17" fill="#10b981" opacity="0.82" /><circle cx="379.72" cy="211.97" r="1.61" fill="#3b82f6" opacity="0.65" /><circle cx="400.73" cy="377.27" r="1.81" fill="#dc2626" opacity="0.69" /><circle cx="518.85" cy="232.29" r="0.60" fill="#3b82f6" opacity="0.27" /><circle cx="357.78" cy="183.99" r="1.08" fill="#3b82f6" opacity="0.48" /><circle cx="394.23" cy="384.45" r="1.48" fill="#dc2626" opacity="0.63" /><circle cx="244.10" cy="356.62" r="0.79" fill="#dc2626" opacity="0.36" /><circle cx="530.40" cy="379.00" r="0.57" fill="#dc2626" opacity="0.25" /><text x="780" y="40" class="text-main" font-size="22" font-weight="800">Neuron</text><text x="862" y="40" font-family="'Inter', sans-serif" font-size="22" font-weight="800" fill="#10b981">FS V2</text><text x="780" y="60" class="text-mono" fill="#94a3b8">Autopilot Nerve Center</text><line x1="750" y1="80" x2="1200" y2="80" class="border" /><circle cx="790" cy="115" r="5" fill="#10b981" /><circle cx="790" cy="115" r="5" fill="none" stroke="#10b981" stroke-width="2" class="pulse" /><text x="810" y="120" class="text-main" font-size="14" font-weight="600">System Listening &amp; Ready</text><line x1="750" y1="150" x2="1200" y2="150" class="border" /><text x="780" y="190" class="text-mono">[SYSTEM] Booting Strangler Fig CLI Router...</text><text x="780" y="215" class="text-mono">[SYSTEM] Neural filesystem mounted successfully.</text><text x="780" y="240" class="text-mono">[12:12:15] [WARN] [EVOLVE:proceed] tag detected.</text><text x="780" y="265" class="text-mono" fill="#10b981">[12:12:15] [INFO] CDP Injection Cooldown: 60s</text><text x="780" y="290" class="text-mono blink" font-weight="700">_</text><line x1="750" y1="480" x2="1200" y2="480" class="border" /><text x="780" y="520" font-family="'JetBrains Mono', monospace" font-size="10" fill="#94a3b8" letter-spacing="1">ACTIVE NEURONS</text><text x="780" y="550" class="text-main" font-size="24" font-weight="800">419</text><text x="1000" y="520" font-family="'JetBrains Mono', monospace" font-size="10" fill="#94a3b8" letter-spacing="1">TOTAL ACTIVATION</text><text x="1000" y="550" class="text-main" font-size="24" font-weight="800">9120</text></svg>